<svg width="112" height="46" viewBox="0 0 112 46" fill="none" xmlns="http://www.w3.org/2000/svg">
<path d="M23.1771 23.2585C23.1771 26.9729 23.0926 30.7332 22.9237 32.9804C22.7548 35.4111 21.1084 36.6031 19.5888 36.6031C18.0691 36.6031 16.5917 35.457 16.5917 33.3015V32.2931C15.0721 34.4944 12.5388 35.457 9.92187 35.457C4.13737 35.457 0 31.4673 0 24.8634C0 18.2595 4.26407 13.3531 10.1745 13.3531C12.7078 13.3531 15.2825 14.3165 16.6762 16.3802V14.0872C16.6762 12.207 18.0269 11.3353 19.4629 11.3353C21.067 11.3353 22.7555 12.3905 22.9667 14.6368C23.0934 16.3335 23.1779 19.8644 23.1779 23.2585H23.1771Z" fill="#AF6D57"/>
<path d="M22.079 42.3811C22.079 40.1798 23.3452 39.9504 24.6967 39.2631C25.6251 38.8502 25.7095 37.8876 25.7095 36.603L25.6673 17.0675C25.6673 14.7286 27.1447 13.6284 28.6644 13.6284C30.184 13.6284 31.9148 14.8662 32.0415 17.251C32.2105 20.9196 32.2949 25.4598 32.2949 28.9907C32.2949 31.4214 32.2527 33.2557 32.0415 36.0075C31.7036 41.6021 29.5505 45.5 25.5398 45.5C23.3022 45.5 22.0782 44.0786 22.0782 42.382L22.079 42.3811Z" fill="#AF6D57"/>
<path d="M57.034 23.2585C57.034 26.9729 56.9495 30.7332 56.7806 32.9804C56.6116 35.4111 54.9653 36.6031 53.4456 36.6031C51.926 36.6031 50.4486 35.457 50.4486 33.3015V32.2931C48.9289 34.4944 46.3957 35.457 43.7787 35.457C37.995 35.457 33.8576 31.4673 33.8576 24.8634C33.8576 18.2595 38.1217 13.3531 44.0321 13.3531C46.5654 13.3531 49.1401 14.3165 50.5338 16.3802V14.0872C50.5338 12.207 51.8845 11.3353 53.3197 11.3353C54.9238 11.3353 56.6124 12.3905 56.8236 14.6368C56.9503 16.3335 57.0347 19.8644 57.0347 23.2585H57.034ZM50.5323 24.4505C50.5323 21.0113 48.548 18.9477 45.551 18.9477C42.5539 18.9477 40.4853 21.4242 40.4853 24.5422C40.4853 27.9814 42.7229 29.7239 45.4665 29.7239C48.548 29.7239 50.5323 27.5685 50.5323 24.4505Z" fill="#AF6D57"/>
<path d="M74.1732 16.6087C74.1732 18.3513 73.0759 20.1397 71.0072 20.1397C70.247 20.1397 69.6143 19.9561 68.8963 19.9561C66.6164 19.9561 66.0252 21.9281 66.0252 24.634C66.0252 27.5235 66.1096 32.384 66.1096 33.5768C66.1096 35.5487 64.5477 36.6498 62.9436 36.6498C61.5085 36.6498 60.1147 35.7781 59.8199 33.9897C59.6087 32.9813 59.482 27.9364 59.482 23.2585C59.482 19.7276 59.5665 16.2876 59.7354 14.7286C60.0733 12.0685 61.8041 10.7848 63.366 10.7848C64.6744 10.7848 65.857 11.7482 65.857 13.6743C65.857 14.2707 65.857 15.0497 65.8148 15.8297C66.8698 14.3165 68.6437 13.2614 70.7116 13.2614C73.1181 13.2614 74.1732 14.958 74.1732 16.6087Z" fill="#AF6D57"/>
<path d="M89.5402 16.6087C89.5402 18.3513 88.4429 20.1397 86.3742 20.1397C85.614 20.1397 84.9812 19.9561 84.2632 19.9561C81.9834 19.9561 81.3921 21.9281 81.3921 24.634C81.3921 27.5235 81.4766 32.384 81.4766 33.5768C81.4766 35.5487 79.9147 36.6498 78.3106 36.6498C76.8754 36.6498 75.4817 35.7781 75.1868 33.9897C74.9757 32.9813 74.849 27.9364 74.849 23.2585C74.849 19.7276 74.9334 16.2876 75.1024 14.7286C75.4402 12.0685 77.1711 10.7848 78.7329 10.7848C80.0414 10.7848 81.224 11.7482 81.224 13.6743C81.224 14.2707 81.224 15.0497 81.1817 15.8297C82.2368 14.3165 84.0106 13.2614 86.0785 13.2614C88.4851 13.2614 89.5402 14.958 89.5402 16.6087Z" fill="#AF6D57"/>
<path d="M111.999 23.2585C111.999 26.9729 111.915 30.7332 111.746 32.9804C111.577 35.4111 109.93 36.6031 108.411 36.6031C106.891 36.6031 105.414 35.457 105.414 33.3015V32.2931C103.894 34.4944 101.361 35.457 98.7438 35.457C92.9601 35.457 88.8227 31.4673 88.8227 24.8634C88.8227 18.2595 93.0868 13.3531 98.9972 13.3531C101.53 13.3531 104.105 14.3165 105.499 16.3802V14.0872C105.499 12.207 106.85 11.3353 108.285 11.3353C109.889 11.3353 111.577 12.3905 111.789 14.6368C111.915 16.3335 112 19.8644 112 23.2585H111.999ZM105.497 24.4505C105.497 21.0113 103.513 18.9477 100.516 18.9477C97.519 18.9477 95.4503 21.4242 95.4503 24.5422C95.4503 27.9814 97.6879 29.7239 100.432 29.7239C103.513 29.7239 105.497 27.5685 105.497 24.4505Z" fill="#AF6D57"/>
<path d="M22.1368 2.99062C22.4394 1.373 23.8754 0.145335 25.9026 0.59307C27.9713 1.0493 32.962 4.77137 34.5536 6.85372C35.2465 7.75514 35.5093 8.65571 35.3576 9.46452C35.1136 10.7678 33.8364 11.6089 32.2229 11.2529C30.32 10.8332 25.0126 7.88343 23.4929 6.56571C22.3033 5.55469 21.9186 4.15881 22.1368 2.99062Z" fill="#AF6D57"/>
<path d="M16.3273 24.2525C16.1724 23.8031 15.7884 23.4471 15.1917 23.2347C14.4103 22.9535 12.9392 22.7785 11.6026 22.7649C11.7817 21.1617 11.8051 19.3376 11.5596 18.5356C11.1802 17.2969 10.1955 16.8662 9.35791 17.1686C8.75255 17.387 8.21759 18.0021 8.09245 18.9451C7.99312 19.6469 8.0072 21.2025 8.10653 22.6128C6.63616 22.5907 4.6973 22.7156 3.93865 22.9705C3.02436 23.2772 2.58873 24.0919 2.79833 24.8302C2.92816 25.2882 3.29341 25.6679 3.87765 25.9186C4.68635 26.2678 6.27247 26.5473 7.66385 26.6297C7.54888 28.2974 7.61536 30.2659 7.91726 31.09C8.36228 32.3024 9.36807 32.6703 10.1885 32.3152C10.7806 32.0586 11.2827 31.4112 11.357 30.4613C11.4188 29.7545 11.321 28.2031 11.1466 26.8004C12.6154 26.7299 14.5449 26.4818 15.2887 26.1802C16.185 25.8166 16.576 24.9755 16.3273 24.2517V24.2525Z" fill="#F0D0B3"/>
</svg>
