<svg width="148" height="51" viewBox="0 0 148 51" fill="none" xmlns="http://www.w3.org/2000/svg">
<rect x="0.5" y="0.5" width="147" height="50" rx="25" fill="#424142"/>
<rect x="0.5" y="0.5" width="147" height="50" rx="25" fill="black" fill-opacity="0.2"/>
<rect x="0.5" y="0.5" width="147" height="50" rx="25" fill="black" fill-opacity="0.2"/>
<rect x="0.5" y="0.5" width="147" height="50" rx="25" fill="black" fill-opacity="0.2"/>
<rect x="0.5" y="0.5" width="147" height="50" rx="25" fill="black" fill-opacity="0.2"/>
<rect x="0.5" y="0.5" width="147" height="50" rx="25" fill="black" fill-opacity="0.2"/>
<rect x="0.5" y="0.5" width="147" height="50" rx="25" fill="black" fill-opacity="0.2"/>
<rect x="0.5" y="0.5" width="147" height="50" rx="25" fill="black" fill-opacity="0.2"/>
<rect x="0.5" y="0.5" width="147" height="50" rx="25" fill="black" fill-opacity="0.2"/>
<rect x="0.5" y="0.5" width="147" height="50" rx="25" fill="black" fill-opacity="0.2"/>
<rect x="0.5" y="0.5" width="147" height="50" rx="25" fill="black" fill-opacity="0.2"/>
<rect x="0.5" y="0.5" width="147" height="50" rx="25" stroke="#A6A6A6"/>
<path d="M28.7045 26.263C28.7166 25.3431 28.9669 24.4411 29.4321 23.641C29.8972 22.8409 30.5621 22.1687 31.3648 21.6869C30.8548 20.9758 30.1821 20.3907 29.4 19.9779C28.6178 19.565 27.7479 19.336 26.8592 19.3088C24.9635 19.1146 23.1258 20.4163 22.1598 20.4163C21.1751 20.4163 19.6878 19.3281 18.0862 19.3603C17.0502 19.393 16.0406 19.6871 15.1557 20.214C14.2708 20.7408 13.5407 21.4825 13.0367 22.3668C10.8535 26.0571 12.482 31.4808 14.5734 34.4639C15.6197 35.9246 16.8426 37.5562 18.4428 37.4984C20.0086 37.4349 20.5934 36.5235 22.4835 36.5235C24.3561 36.5235 24.9048 37.4984 26.5374 37.4616C28.2176 37.4349 29.2762 35.9944 30.2859 34.5198C31.0377 33.479 31.6162 32.3287 32 31.1115C31.0238 30.7084 30.1908 30.0337 29.6048 29.1715C29.0187 28.3093 28.7056 27.2977 28.7045 26.263Z" fill="white"/>
<path d="M25.6208 17.3471C26.5369 16.2734 26.9883 14.8934 26.879 13.5C25.4794 13.6435 24.1865 14.2966 23.258 15.3291C22.804 15.8335 22.4563 16.4203 22.2348 17.056C22.0132 17.6917 21.9222 18.3638 21.9669 19.0338C22.6669 19.0408 23.3595 18.8927 23.9924 18.6005C24.6254 18.3084 25.1821 17.8798 25.6208 17.3471Z" fill="white"/>
<path d="M41.056 20V11.54H43.864C44.8 11.54 45.592 11.704 46.24 12.032C46.888 12.352 47.38 12.828 47.716 13.46C48.052 14.084 48.22 14.852 48.22 15.764C48.22 16.668 48.052 17.436 47.716 18.068C47.38 18.7 46.888 19.18 46.24 19.508C45.592 19.836 44.8 20 43.864 20H41.056ZM42.052 19.148H43.792C44.944 19.148 45.8 18.868 46.36 18.308C46.92 17.74 47.2 16.892 47.2 15.764C47.2 14.628 46.92 13.78 46.36 13.22C45.8 12.66 44.944 12.38 43.792 12.38H42.052V19.148ZM52.3848 20.108C51.8088 20.108 51.3048 19.984 50.8728 19.736C50.4488 19.48 50.1208 19.12 49.8888 18.656C49.6568 18.184 49.5408 17.628 49.5408 16.988C49.5408 16.34 49.6568 15.784 49.8888 15.32C50.1208 14.856 50.4488 14.5 50.8728 14.252C51.3048 13.996 51.8088 13.868 52.3848 13.868C52.9688 13.868 53.4728 13.996 53.8968 14.252C54.3288 14.5 54.6608 14.856 54.8928 15.32C55.1328 15.784 55.2528 16.34 55.2528 16.988C55.2528 17.628 55.1328 18.184 54.8928 18.656C54.6608 19.12 54.3288 19.48 53.8968 19.736C53.4728 19.984 52.9688 20.108 52.3848 20.108ZM52.3848 19.316C52.9608 19.316 53.4168 19.12 53.7528 18.728C54.0888 18.328 54.2568 17.748 54.2568 16.988C54.2568 16.22 54.0848 15.64 53.7408 15.248C53.4048 14.848 52.9528 14.648 52.3848 14.648C51.8168 14.648 51.3648 14.848 51.0288 15.248C50.6928 15.64 50.5248 16.22 50.5248 16.988C50.5248 17.748 50.6928 18.328 51.0288 18.728C51.3648 19.12 51.8168 19.316 52.3848 19.316ZM58.2943 20L56.0623 13.976H57.0943L58.9543 19.28H58.6423L60.5623 13.976H61.4023L63.2863 19.28H62.9863L64.8583 13.976H65.8423L63.5983 20H62.6623L60.7183 14.612H61.1983L59.2423 20H58.2943ZM67.116 20V15.368C67.116 15.144 67.104 14.916 67.08 14.684C67.064 14.444 67.044 14.208 67.02 13.976H67.956L68.076 15.296H67.932C68.108 14.832 68.388 14.48 68.772 14.24C69.164 13.992 69.616 13.868 70.128 13.868C70.84 13.868 71.376 14.06 71.736 14.444C72.104 14.82 72.288 15.416 72.288 16.232V20H71.316V16.292C71.316 15.724 71.2 15.312 70.968 15.056C70.744 14.792 70.392 14.66 69.912 14.66C69.352 14.66 68.908 14.832 68.58 15.176C68.252 15.52 68.088 15.98 68.088 16.556V20H67.116ZM74.1472 20V11.168H75.1192V20H74.1472ZM79.4786 20.108C78.9026 20.108 78.3986 19.984 77.9666 19.736C77.5426 19.48 77.2146 19.12 76.9826 18.656C76.7506 18.184 76.6346 17.628 76.6346 16.988C76.6346 16.34 76.7506 15.784 76.9826 15.32C77.2146 14.856 77.5426 14.5 77.9666 14.252C78.3986 13.996 78.9026 13.868 79.4786 13.868C80.0626 13.868 80.5666 13.996 80.9906 14.252C81.4226 14.5 81.7546 14.856 81.9866 15.32C82.2266 15.784 82.3466 16.34 82.3466 16.988C82.3466 17.628 82.2266 18.184 81.9866 18.656C81.7546 19.12 81.4226 19.48 80.9906 19.736C80.5666 19.984 80.0626 20.108 79.4786 20.108ZM79.4786 19.316C80.0546 19.316 80.5106 19.12 80.8466 18.728C81.1826 18.328 81.3506 17.748 81.3506 16.988C81.3506 16.22 81.1786 15.64 80.8346 15.248C80.4986 14.848 80.0466 14.648 79.4786 14.648C78.9106 14.648 78.4586 14.848 78.1226 15.248C77.7866 15.64 77.6186 16.22 77.6186 16.988C77.6186 17.748 77.7866 18.328 78.1226 18.728C78.4586 19.12 78.9106 19.316 79.4786 19.316ZM86.1541 20.108C85.6181 20.108 85.1501 19.984 84.7501 19.736C84.3501 19.48 84.0381 19.12 83.8141 18.656C83.5981 18.192 83.4901 17.636 83.4901 16.988C83.4901 16.332 83.5981 15.772 83.8141 15.308C84.0381 14.844 84.3501 14.488 84.7501 14.24C85.1501 13.992 85.6181 13.868 86.1541 13.868C86.6981 13.868 87.1661 14.008 87.5581 14.288C87.9581 14.56 88.2221 14.932 88.3501 15.404H88.2061L88.3381 13.976H89.2741C89.2501 14.208 89.2261 14.444 89.2021 14.684C89.1861 14.916 89.1781 15.144 89.1781 15.368V20H88.2061V18.584H88.3381C88.2101 19.056 87.9461 19.428 87.5461 19.7C87.1461 19.972 86.6821 20.108 86.1541 20.108ZM86.3461 19.316C86.9221 19.316 87.3781 19.12 87.7141 18.728C88.0501 18.328 88.2181 17.748 88.2181 16.988C88.2181 16.22 88.0501 15.64 87.7141 15.248C87.3781 14.848 86.9221 14.648 86.3461 14.648C85.7781 14.648 85.3221 14.848 84.9781 15.248C84.6421 15.64 84.4741 16.22 84.4741 16.988C84.4741 17.748 84.6421 18.328 84.9781 18.728C85.3221 19.12 85.7781 19.316 86.3461 19.316ZM93.3374 20.108C92.8094 20.108 92.3454 19.984 91.9454 19.736C91.5454 19.48 91.2334 19.12 91.0094 18.656C90.7934 18.192 90.6854 17.636 90.6854 16.988C90.6854 16.332 90.7934 15.772 91.0094 15.308C91.2334 14.844 91.5454 14.488 91.9454 14.24C92.3454 13.992 92.8094 13.868 93.3374 13.868C93.8814 13.868 94.3494 14.004 94.7414 14.276C95.1414 14.548 95.4094 14.916 95.5454 15.38H95.4014V11.168H96.3734V20H95.4134V18.56H95.5454C95.4174 19.04 95.1534 19.42 94.7534 19.7C94.3534 19.972 93.8814 20.108 93.3374 20.108ZM93.5414 19.316C94.1094 19.316 94.5654 19.12 94.9094 18.728C95.2534 18.328 95.4254 17.748 95.4254 16.988C95.4254 16.22 95.2534 15.64 94.9094 15.248C94.5654 14.848 94.1094 14.648 93.5414 14.648C92.9734 14.648 92.5174 14.848 92.1734 15.248C91.8374 15.64 91.6694 16.22 91.6694 16.988C91.6694 17.748 91.8374 18.328 92.1734 18.728C92.5174 19.12 92.9734 19.316 93.5414 19.316ZM103.854 20.108C103.278 20.108 102.774 19.984 102.342 19.736C101.918 19.48 101.59 19.12 101.358 18.656C101.126 18.184 101.01 17.628 101.01 16.988C101.01 16.34 101.126 15.784 101.358 15.32C101.59 14.856 101.918 14.5 102.342 14.252C102.774 13.996 103.278 13.868 103.854 13.868C104.438 13.868 104.942 13.996 105.366 14.252C105.798 14.5 106.13 14.856 106.362 15.32C106.602 15.784 106.722 16.34 106.722 16.988C106.722 17.628 106.602 18.184 106.362 18.656C106.13 19.12 105.798 19.48 105.366 19.736C104.942 19.984 104.438 20.108 103.854 20.108ZM103.854 19.316C104.43 19.316 104.886 19.12 105.222 18.728C105.558 18.328 105.726 17.748 105.726 16.988C105.726 16.22 105.554 15.64 105.21 15.248C104.874 14.848 104.422 14.648 103.854 14.648C103.286 14.648 102.834 14.848 102.498 15.248C102.162 15.64 101.994 16.22 101.994 16.988C101.994 17.748 102.162 18.328 102.498 18.728C102.834 19.12 103.286 19.316 103.854 19.316ZM108.237 20V15.368C108.237 15.144 108.225 14.916 108.201 14.684C108.185 14.444 108.165 14.208 108.141 13.976H109.077L109.197 15.296H109.053C109.229 14.832 109.509 14.48 109.893 14.24C110.285 13.992 110.737 13.868 111.249 13.868C111.961 13.868 112.497 14.06 112.857 14.444C113.225 14.82 113.409 15.416 113.409 16.232V20H112.437V16.292C112.437 15.724 112.321 15.312 112.089 15.056C111.865 14.792 111.513 14.66 111.033 14.66C110.473 14.66 110.029 14.832 109.701 15.176C109.373 15.52 109.209 15.98 109.209 16.556V20H108.237ZM120.533 20.108C119.941 20.108 119.489 19.94 119.177 19.604C118.865 19.26 118.709 18.744 118.709 18.056V14.732H117.533V13.976H118.709V12.332L119.681 12.056V13.976H121.409V14.732H119.681V17.948C119.681 18.428 119.761 18.772 119.921 18.98C120.089 19.18 120.337 19.28 120.665 19.28C120.817 19.28 120.953 19.268 121.073 19.244C121.193 19.212 121.301 19.176 121.397 19.136V19.952C121.285 20 121.149 20.036 120.989 20.06C120.837 20.092 120.685 20.108 120.533 20.108ZM122.593 20V11.168H123.565V15.308H123.409C123.577 14.836 123.857 14.48 124.249 14.24C124.649 13.992 125.109 13.868 125.629 13.868C126.349 13.868 126.885 14.064 127.237 14.456C127.589 14.84 127.765 15.424 127.765 16.208V20H126.793V16.268C126.793 15.708 126.681 15.3 126.457 15.044C126.241 14.788 125.889 14.66 125.401 14.66C124.841 14.66 124.393 14.832 124.057 15.176C123.729 15.52 123.565 15.972 123.565 16.532V20H122.593ZM132.3 20.108C131.356 20.108 130.612 19.836 130.068 19.292C129.524 18.74 129.252 17.976 129.252 17C129.252 16.368 129.372 15.82 129.612 15.356C129.852 14.884 130.188 14.52 130.62 14.264C131.052 14 131.548 13.868 132.108 13.868C132.66 13.868 133.124 13.984 133.5 14.216C133.876 14.448 134.164 14.78 134.364 15.212C134.564 15.636 134.664 16.14 134.664 16.724V17.084H129.996V16.472H134.028L133.824 16.628C133.824 15.988 133.68 15.488 133.392 15.128C133.104 14.768 132.676 14.588 132.108 14.588C131.508 14.588 131.04 14.8 130.704 15.224C130.368 15.64 130.2 16.204 130.2 16.916V17.024C130.2 17.776 130.384 18.348 130.752 18.74C131.128 19.124 131.652 19.316 132.324 19.316C132.684 19.316 133.02 19.264 133.332 19.16C133.652 19.048 133.956 18.868 134.244 18.62L134.58 19.304C134.316 19.56 133.98 19.76 133.572 19.904C133.172 20.04 132.748 20.108 132.3 20.108Z" fill="white"/>
<path d="M40 39L45.104 27.72H46.832L52 39H49.904L48.528 35.832L49.36 36.392H42.592L43.456 35.832L42.08 39H40ZM45.952 29.928L43.696 35.272L43.28 34.776H48.656L48.32 35.272L46.016 29.928H45.952ZM53.088 42.456V32.936C53.088 32.6053 53.0773 32.2693 53.056 31.928C53.0347 31.5867 53.0027 31.2507 52.96 30.92H54.896L55.072 32.616H54.896C55.056 32.0507 55.392 31.6027 55.904 31.272C56.4267 30.9307 57.0293 30.76 57.712 30.76C58.4267 30.76 59.0507 30.9307 59.584 31.272C60.1173 31.6027 60.5333 32.0827 60.832 32.712C61.1307 33.3307 61.28 34.0773 61.28 34.952C61.28 35.8267 61.1307 36.5787 60.832 37.208C60.5333 37.8373 60.1173 38.3227 59.584 38.664C59.0507 38.9947 58.4267 39.16 57.712 39.16C57.04 39.16 56.448 38.9947 55.936 38.664C55.424 38.3333 55.0827 37.8907 54.912 37.336H55.088V42.456H53.088ZM57.152 37.624C57.792 37.624 58.304 37.4053 58.688 36.968C59.072 36.52 59.264 35.848 59.264 34.952C59.264 34.056 59.072 33.3893 58.688 32.952C58.304 32.5147 57.792 32.296 57.152 32.296C56.5227 32.296 56.016 32.5147 55.632 32.952C55.248 33.3893 55.056 34.056 55.056 34.952C55.056 35.848 55.248 36.52 55.632 36.968C56.016 37.4053 56.5227 37.624 57.152 37.624ZM63.0099 42.456V32.936C63.0099 32.6053 62.9992 32.2693 62.9779 31.928C62.9565 31.5867 62.9245 31.2507 62.8819 30.92H64.8179L64.9939 32.616H64.8179C64.9779 32.0507 65.3139 31.6027 65.8259 31.272C66.3485 30.9307 66.9512 30.76 67.6339 30.76C68.3485 30.76 68.9725 30.9307 69.5059 31.272C70.0392 31.6027 70.4552 32.0827 70.7539 32.712C71.0525 33.3307 71.2019 34.0773 71.2019 34.952C71.2019 35.8267 71.0525 36.5787 70.7539 37.208C70.4552 37.8373 70.0392 38.3227 69.5059 38.664C68.9725 38.9947 68.3485 39.16 67.6339 39.16C66.9619 39.16 66.3699 38.9947 65.8579 38.664C65.3459 38.3333 65.0045 37.8907 64.8339 37.336H65.0099V42.456H63.0099ZM67.0739 37.624C67.7139 37.624 68.2259 37.4053 68.6099 36.968C68.9939 36.52 69.1859 35.848 69.1859 34.952C69.1859 34.056 68.9939 33.3893 68.6099 32.952C68.2259 32.5147 67.7139 32.296 67.0739 32.296C66.4445 32.296 65.9379 32.5147 65.5539 32.952C65.1699 33.3893 64.9779 34.056 64.9779 34.952C64.9779 35.848 65.1699 36.52 65.5539 36.968C65.9379 37.4053 66.4445 37.624 67.0739 37.624ZM81.4184 39.16C80.5117 39.16 79.6744 39.048 78.9064 38.824C78.149 38.5893 77.4984 38.2693 76.9544 37.864L77.5944 36.248C77.957 36.504 78.3357 36.7227 78.7304 36.904C79.125 37.0747 79.5464 37.208 79.9944 37.304C80.4424 37.3893 80.917 37.432 81.4184 37.432C82.261 37.432 82.869 37.2933 83.2424 37.016C83.6157 36.7387 83.8024 36.376 83.8024 35.928C83.8024 35.5333 83.6744 35.2347 83.4184 35.032C83.1624 34.8187 82.7037 34.6427 82.0424 34.504L80.2344 34.136C79.1997 33.9227 78.4264 33.5653 77.9144 33.064C77.4024 32.5627 77.1464 31.8907 77.1464 31.048C77.1464 30.344 77.333 29.7307 77.7064 29.208C78.0797 28.6853 78.6024 28.28 79.2744 27.992C79.9464 27.704 80.7304 27.56 81.6264 27.56C82.4264 27.56 83.1677 27.6773 83.8504 27.912C84.533 28.136 85.1037 28.4613 85.5624 28.888L84.9224 30.424C84.4637 30.04 83.9624 29.7573 83.4184 29.576C82.8744 29.384 82.2664 29.288 81.5944 29.288C80.837 29.288 80.245 29.4373 79.8184 29.736C79.4024 30.024 79.1944 30.424 79.1944 30.936C79.1944 31.3307 79.3224 31.6453 79.5784 31.88C79.845 32.1147 80.293 32.296 80.9224 32.424L82.7144 32.776C83.781 32.9893 84.5704 33.3413 85.0824 33.832C85.5944 34.312 85.8504 34.9627 85.8504 35.784C85.8504 36.456 85.669 37.048 85.3064 37.56C84.9437 38.0613 84.4317 38.456 83.7704 38.744C83.109 39.0213 82.325 39.16 81.4184 39.16ZM91.0128 39.16C90.0528 39.16 89.3274 38.9093 88.8368 38.408C88.3461 37.9067 88.1008 37.1547 88.1008 36.152V32.424H86.5488V30.92H88.1008V28.856L90.1008 28.344V30.92H92.2608V32.424H90.1008V36.024C90.1008 36.5787 90.2074 36.968 90.4208 37.192C90.6341 37.416 90.9274 37.528 91.3008 37.528C91.5034 37.528 91.6741 37.512 91.8128 37.48C91.9621 37.448 92.1061 37.4053 92.2448 37.352V38.936C92.0634 39.0107 91.8608 39.064 91.6368 39.096C91.4234 39.1387 91.2154 39.16 91.0128 39.16ZM97.1891 39.16C96.3571 39.16 95.6371 38.9893 95.0291 38.648C94.4211 38.3067 93.9465 37.8213 93.6051 37.192C93.2745 36.5627 93.1091 35.816 93.1091 34.952C93.1091 34.088 93.2745 33.3467 93.6051 32.728C93.9465 32.0987 94.4211 31.6133 95.0291 31.272C95.6371 30.9307 96.3571 30.76 97.1891 30.76C98.0211 30.76 98.7411 30.9307 99.3491 31.272C99.9678 31.6133 100.442 32.0987 100.773 32.728C101.114 33.3467 101.285 34.088 101.285 34.952C101.285 35.816 101.114 36.5627 100.773 37.192C100.442 37.8213 99.9678 38.3067 99.3491 38.648C98.7411 38.9893 98.0211 39.16 97.1891 39.16ZM97.1891 37.624C97.8185 37.624 98.3198 37.4053 98.6931 36.968C99.0665 36.52 99.2531 35.848 99.2531 34.952C99.2531 34.056 99.0665 33.3893 98.6931 32.952C98.3198 32.5147 97.8185 32.296 97.1891 32.296C96.5598 32.296 96.0585 32.5147 95.6851 32.952C95.3118 33.3893 95.1251 34.056 95.1251 34.952C95.1251 35.848 95.3118 36.52 95.6851 36.968C96.0585 37.4053 96.5598 37.624 97.1891 37.624ZM102.994 39V32.984C102.994 32.6427 102.983 32.296 102.962 31.944C102.951 31.592 102.925 31.2507 102.882 30.92H104.818L105.042 33.128H104.722C104.829 32.5947 105.005 32.152 105.25 31.8C105.506 31.448 105.815 31.1867 106.178 31.016C106.541 30.8453 106.935 30.76 107.362 30.76C107.554 30.76 107.709 30.7707 107.826 30.792C107.943 30.8027 108.061 30.8293 108.178 30.872L108.162 32.632C107.959 32.5467 107.783 32.4933 107.634 32.472C107.495 32.4507 107.319 32.44 107.106 32.44C106.647 32.44 106.258 32.536 105.938 32.728C105.629 32.92 105.394 33.1867 105.234 33.528C105.085 33.8693 105.01 34.2587 105.01 34.696V39H102.994ZM113.07 39.16C111.715 39.16 110.654 38.7867 109.886 38.04C109.118 37.2933 108.734 36.2693 108.734 34.968C108.734 34.1253 108.899 33.3893 109.23 32.76C109.561 32.1307 110.019 31.64 110.606 31.288C111.203 30.936 111.897 30.76 112.686 30.76C113.465 30.76 114.115 30.9253 114.638 31.256C115.161 31.5867 115.555 32.0507 115.822 32.648C116.099 33.2453 116.238 33.944 116.238 34.744V35.272H110.35V34.216H114.814L114.542 34.44C114.542 33.6933 114.382 33.1227 114.062 32.728C113.753 32.3333 113.299 32.136 112.702 32.136C112.041 32.136 111.529 32.3707 111.166 32.84C110.814 33.3093 110.638 33.9653 110.638 34.808V35.016C110.638 35.8907 110.851 36.5467 111.278 36.984C111.715 37.4107 112.329 37.624 113.118 37.624C113.577 37.624 114.003 37.5653 114.398 37.448C114.803 37.32 115.187 37.1173 115.55 36.84L116.142 38.184C115.758 38.4933 115.299 38.7333 114.766 38.904C114.233 39.0747 113.667 39.16 113.07 39.16Z" fill="white"/>
</svg>
