<svg width="18" height="15" viewBox="0 0 18 15" fill="none" xmlns="http://www.w3.org/2000/svg">
<path d="M16 7.5L16.7071 6.79289L17.4142 7.5L16.7071 8.20711L16 7.5ZM1 8.5C0.447715 8.5 0 8.05228 0 7.5C0 6.94772 0.447715 6.5 1 6.5V7.5V8.5ZM10 1.5L10.7071 0.792893L16.7071 6.79289L16 7.5L15.2929 8.20711L9.29289 2.20711L10 1.5ZM16 7.5L16.7071 8.20711L10.7071 14.2071L10 13.5L9.29289 12.7929L15.2929 6.79289L16 7.5ZM16 7.5V8.5H1V7.5V6.5H16V7.5Z" fill="#424142"/>
<path d="M16 7.5L16.7071 6.79289L17.4142 7.5L16.7071 8.20711L16 7.5ZM1 8.5C0.447715 8.5 0 8.05228 0 7.5C0 6.94772 0.447715 6.5 1 6.5V7.5V8.5ZM10 1.5L10.7071 0.792893L16.7071 6.79289L16 7.5L15.2929 8.20711L9.29289 2.20711L10 1.5ZM16 7.5L16.7071 8.20711L10.7071 14.2071L10 13.5L9.29289 12.7929L15.2929 6.79289L16 7.5ZM16 7.5V8.5H1V7.5V6.5H16V7.5Z" fill="black" fill-opacity="0.2"/>
<path d="M16 7.5L16.7071 6.79289L17.4142 7.5L16.7071 8.20711L16 7.5ZM1 8.5C0.447715 8.5 0 8.05228 0 7.5C0 6.94772 0.447715 6.5 1 6.5V7.5V8.5ZM10 1.5L10.7071 0.792893L16.7071 6.79289L16 7.5L15.2929 8.20711L9.29289 2.20711L10 1.5ZM16 7.5L16.7071 8.20711L10.7071 14.2071L10 13.5L9.29289 12.7929L15.2929 6.79289L16 7.5ZM16 7.5V8.5H1V7.5V6.5H16V7.5Z" fill="black" fill-opacity="0.2"/>
<path d="M16 7.5L16.7071 6.79289L17.4142 7.5L16.7071 8.20711L16 7.5ZM1 8.5C0.447715 8.5 0 8.05228 0 7.5C0 6.94772 0.447715 6.5 1 6.5V7.5V8.5ZM10 1.5L10.7071 0.792893L16.7071 6.79289L16 7.5L15.2929 8.20711L9.29289 2.20711L10 1.5ZM16 7.5L16.7071 8.20711L10.7071 14.2071L10 13.5L9.29289 12.7929L15.2929 6.79289L16 7.5ZM16 7.5V8.5H1V7.5V6.5H16V7.5Z" fill="black" fill-opacity="0.2"/>
<path d="M16 7.5L16.7071 6.79289L17.4142 7.5L16.7071 8.20711L16 7.5ZM1 8.5C0.447715 8.5 0 8.05228 0 7.5C0 6.94772 0.447715 6.5 1 6.5V7.5V8.5ZM10 1.5L10.7071 0.792893L16.7071 6.79289L16 7.5L15.2929 8.20711L9.29289 2.20711L10 1.5ZM16 7.5L16.7071 8.20711L10.7071 14.2071L10 13.5L9.29289 12.7929L15.2929 6.79289L16 7.5ZM16 7.5V8.5H1V7.5V6.5H16V7.5Z" fill="black" fill-opacity="0.2"/>
<path d="M16 7.5L16.7071 6.79289L17.4142 7.5L16.7071 8.20711L16 7.5ZM1 8.5C0.447715 8.5 0 8.05228 0 7.5C0 6.94772 0.447715 6.5 1 6.5V7.5V8.5ZM10 1.5L10.7071 0.792893L16.7071 6.79289L16 7.5L15.2929 8.20711L9.29289 2.20711L10 1.5ZM16 7.5L16.7071 8.20711L10.7071 14.2071L10 13.5L9.29289 12.7929L15.2929 6.79289L16 7.5ZM16 7.5V8.5H1V7.5V6.5H16V7.5Z" fill="black" fill-opacity="0.2"/>
<path d="M16 7.5L16.7071 6.79289L17.4142 7.5L16.7071 8.20711L16 7.5ZM1 8.5C0.447715 8.5 0 8.05228 0 7.5C0 6.94772 0.447715 6.5 1 6.5V7.5V8.5ZM10 1.5L10.7071 0.792893L16.7071 6.79289L16 7.5L15.2929 8.20711L9.29289 2.20711L10 1.5ZM16 7.5L16.7071 8.20711L10.7071 14.2071L10 13.5L9.29289 12.7929L15.2929 6.79289L16 7.5ZM16 7.5V8.5H1V7.5V6.5H16V7.5Z" fill="black" fill-opacity="0.2"/>
<path d="M16 7.5L16.7071 6.79289L17.4142 7.5L16.7071 8.20711L16 7.5ZM1 8.5C0.447715 8.5 0 8.05228 0 7.5C0 6.94772 0.447715 6.5 1 6.5V7.5V8.5ZM10 1.5L10.7071 0.792893L16.7071 6.79289L16 7.5L15.2929 8.20711L9.29289 2.20711L10 1.5ZM16 7.5L16.7071 8.20711L10.7071 14.2071L10 13.5L9.29289 12.7929L15.2929 6.79289L16 7.5ZM16 7.5V8.5H1V7.5V6.5H16V7.5Z" fill="black" fill-opacity="0.2"/>
<path d="M16 7.5L16.7071 6.79289L17.4142 7.5L16.7071 8.20711L16 7.5ZM1 8.5C0.447715 8.5 0 8.05228 0 7.5C0 6.94772 0.447715 6.5 1 6.5V7.5V8.5ZM10 1.5L10.7071 0.792893L16.7071 6.79289L16 7.5L15.2929 8.20711L9.29289 2.20711L10 1.5ZM16 7.5L16.7071 8.20711L10.7071 14.2071L10 13.5L9.29289 12.7929L15.2929 6.79289L16 7.5ZM16 7.5V8.5H1V7.5V6.5H16V7.5Z" fill="black" fill-opacity="0.2"/>
<path d="M16 7.5L16.7071 6.79289L17.4142 7.5L16.7071 8.20711L16 7.5ZM1 8.5C0.447715 8.5 0 8.05228 0 7.5C0 6.94772 0.447715 6.5 1 6.5V7.5V8.5ZM10 1.5L10.7071 0.792893L16.7071 6.79289L16 7.5L15.2929 8.20711L9.29289 2.20711L10 1.5ZM16 7.5L16.7071 8.20711L10.7071 14.2071L10 13.5L9.29289 12.7929L15.2929 6.79289L16 7.5ZM16 7.5V8.5H1V7.5V6.5H16V7.5Z" fill="black" fill-opacity="0.2"/>
<path d="M16 7.5L16.7071 6.79289L17.4142 7.5L16.7071 8.20711L16 7.5ZM1 8.5C0.447715 8.5 0 8.05228 0 7.5C0 6.94772 0.447715 6.5 1 6.5V7.5V8.5ZM10 1.5L10.7071 0.792893L16.7071 6.79289L16 7.5L15.2929 8.20711L9.29289 2.20711L10 1.5ZM16 7.5L16.7071 8.20711L10.7071 14.2071L10 13.5L9.29289 12.7929L15.2929 6.79289L16 7.5ZM16 7.5V8.5H1V7.5V6.5H16V7.5Z" fill="black" fill-opacity="0.2"/>
</svg>
