<svg width="43" height="36" viewBox="0 0 43 36" fill="none" xmlns="http://www.w3.org/2000/svg">
<path d="M17.5996 3C10.9722 3 5.59961 8.37258 5.59961 15C5.59961 21.6274 10.9722 27 17.5996 27C23.5367 27 28.4661 22.6883 29.4287 17.0254C29.8704 16.8473 30.3296 16.7032 30.7568 16.6387C31.5914 18.9486 33.8026 20.5996 36.4004 20.5996C39.7141 20.5996 42.4004 17.9133 42.4004 14.5996C42.4002 11.2861 39.714 8.59961 36.4004 8.59961C33.5299 8.59966 31.1325 10.6163 30.542 13.3096C30.1863 13.2265 29.8011 13.0919 29.4229 12.9355C28.4443 7.29185 23.5231 3 17.5996 3Z" fill="#F3E9E2"/>
<g filter="url(#filter0_ddii_2_825)">
<circle cx="8" cy="8" r="8" transform="matrix(-1 0 0 1 25.5996 7)" fill="#F0D0B3"/>
</g>
<defs>
<filter id="filter0_ddii_2_825" x="-0.000391006" y="0.6" width="35.2" height="35.2" filterUnits="userSpaceOnUse" color-interpolation-filters="sRGB">
<feFlood flood-opacity="0" result="BackgroundImageFix"/>
<feColorMatrix in="SourceAlpha" type="matrix" values="0 0 0 0 0 0 0 0 0 0 0 0 0 0 0 0 0 0 127 0" result="hardAlpha"/>
<feOffset dy="3.2"/>
<feGaussianBlur stdDeviation="4.8"/>
<feComposite in2="hardAlpha" operator="out"/>
<feColorMatrix type="matrix" values="0 0 0 0 0 0 0 0 0 0 0 0 0 0 0 0 0 0 0.12 0"/>
<feBlend mode="normal" in2="BackgroundImageFix" result="effect1_dropShadow_2_825"/>
<feColorMatrix in="SourceAlpha" type="matrix" values="0 0 0 0 0 0 0 0 0 0 0 0 0 0 0 0 0 0 127 0" result="hardAlpha"/>
<feOffset dx="3.2" dy="3.2"/>
<feGaussianBlur stdDeviation="2.6"/>
<feComposite in2="hardAlpha" operator="out"/>
<feColorMatrix type="matrix" values="0 0 0 0 0 0 0 0 0 0 0 0 0 0 0 0 0 0 0.12 0"/>
<feBlend mode="normal" in2="effect1_dropShadow_2_825" result="effect2_dropShadow_2_825"/>
<feBlend mode="normal" in="SourceGraphic" in2="effect2_dropShadow_2_825" result="shape"/>
<feColorMatrix in="SourceAlpha" type="matrix" values="0 0 0 0 0 0 0 0 0 0 0 0 0 0 0 0 0 0 127 0" result="hardAlpha"/>
<feOffset dy="3.2"/>
<feGaussianBlur stdDeviation="9.6"/>
<feComposite in2="hardAlpha" operator="arithmetic" k2="-1" k3="1"/>
<feColorMatrix type="matrix" values="0 0 0 0 0.904133 0 0 0 0 0.738048 0 0 0 0 0.513833 0 0 0 0.5 0"/>
<feBlend mode="normal" in2="shape" result="effect3_innerShadow_2_825"/>
<feColorMatrix in="SourceAlpha" type="matrix" values="0 0 0 0 0 0 0 0 0 0 0 0 0 0 0 0 0 0 127 0" result="hardAlpha"/>
<feOffset dy="3.2"/>
<feGaussianBlur stdDeviation="1.6"/>
<feComposite in2="hardAlpha" operator="arithmetic" k2="-1" k3="1"/>
<feColorMatrix type="matrix" values="0 0 0 0 0.904133 0 0 0 0 0.738048 0 0 0 0 0.513833 0 0 0 0.5 0"/>
<feBlend mode="normal" in2="effect3_innerShadow_2_825" result="effect4_innerShadow_2_825"/>
</filter>
</defs>
</svg>
