<svg width="32" height="32" viewBox="0 0 32 32" fill="none" xmlns="http://www.w3.org/2000/svg">
<path d="M18 29.1838C24.4146 28.2185 29.3333 22.6838 29.3333 15.9998C29.3333 8.63584 23.364 2.6665 16 2.6665C8.63596 2.6665 2.66663 8.63584 2.66663 15.9998C2.66663 22.6838 7.58529 28.2198 14 29.1838V19.9998H12C11.4695 19.9998 10.9608 19.7891 10.5857 19.4141C10.2107 19.039 9.99996 18.5303 9.99996 17.9998C9.99996 17.4694 10.2107 16.9607 10.5857 16.5856C10.9608 16.2106 11.4695 15.9998 12 15.9998H14V13.3332C14 12.0955 14.4916 10.9085 15.3668 10.0333C16.242 9.15817 17.4289 8.6665 18.6666 8.6665H19.3333C19.8637 8.6665 20.3724 8.87722 20.7475 9.25229C21.1226 9.62736 21.3333 10.1361 21.3333 10.6665C21.3333 11.1969 21.1226 11.7056 20.7475 12.0807C20.3724 12.4558 19.8637 12.6665 19.3333 12.6665H18.6666C18.4898 12.6665 18.3202 12.7367 18.1952 12.8618C18.0702 12.9868 18 13.1564 18 13.3332V15.9998H20C20.5304 15.9998 21.0391 16.2106 21.4142 16.5856C21.7892 16.9607 22 17.4694 22 17.9998C22 18.5303 21.7892 19.039 21.4142 19.4141C21.0391 19.7891 20.5304 19.9998 20 19.9998H18V29.1838Z" fill="white"/>
</svg>
