<svg width="33" height="32" viewBox="0 0 33 32" fill="none" xmlns="http://www.w3.org/2000/svg">
<path d="M22 4C23.7681 4 25.4638 4.70238 26.714 5.95262C27.9642 7.20286 28.6666 8.89856 28.6666 10.6667V21.3333C28.6666 23.1014 27.9642 24.7971 26.714 26.0474C25.4638 27.2976 23.7681 28 22 28H11.3333C9.56518 28 7.86949 27.2976 6.61925 26.0474C5.369 24.7971 4.66663 23.1014 4.66663 21.3333V10.6667C4.66663 8.89856 5.369 7.20286 6.61925 5.95262C7.86949 4.70238 9.56518 4 11.3333 4H22ZM16.6666 10.6667C15.2521 10.6667 13.8956 11.2286 12.8954 12.2288C11.8952 13.229 11.3333 14.5855 11.3333 16C11.3333 17.4145 11.8952 18.771 12.8954 19.7712C13.8956 20.7714 15.2521 21.3333 16.6666 21.3333C18.0811 21.3333 19.4377 20.7714 20.4379 19.7712C21.4381 18.771 22 17.4145 22 16C22 14.5855 21.4381 13.229 20.4379 12.2288C19.4377 11.2286 18.0811 10.6667 16.6666 10.6667ZM16.6666 13.3333C17.3739 13.3333 18.0521 13.6143 18.5522 14.1144C19.0523 14.6145 19.3333 15.2928 19.3333 16C19.3333 16.7072 19.0523 17.3855 18.5522 17.8856C18.0521 18.3857 17.3739 18.6667 16.6666 18.6667C15.9594 18.6667 15.2811 18.3857 14.781 17.8856C14.2809 17.3855 14 16.7072 14 16C14 15.2928 14.2809 14.6145 14.781 14.1144C15.2811 13.6143 15.9594 13.3333 16.6666 13.3333ZM22.6666 8.66667C22.313 8.66667 21.9739 8.80714 21.7238 9.05719C21.4738 9.30724 21.3333 9.64638 21.3333 10C21.3333 10.3536 21.4738 10.6928 21.7238 10.9428C21.9739 11.1929 22.313 11.3333 22.6666 11.3333C23.0202 11.3333 23.3594 11.1929 23.6094 10.9428C23.8595 10.6928 24 10.3536 24 10C24 9.64638 23.8595 9.30724 23.6094 9.05719C23.3594 8.80714 23.0202 8.66667 22.6666 8.66667Z" fill="white"/>
</svg>
