<svg width="1235" height="364" viewBox="0 0 1235 364" fill="none" xmlns="http://www.w3.org/2000/svg">
<g opacity="0.08">
<path d="M255.569 250.954C255.569 291.913 254.638 333.376 252.775 358.156C250.912 384.958 232.758 398.102 216.001 398.102C199.244 398.102 182.953 385.464 182.953 361.697V350.577C166.197 374.85 138.263 385.464 109.406 385.464C45.6219 385.464 0 341.471 0 268.651C0 195.831 47.019 141.73 112.192 141.73C140.126 141.73 168.516 152.353 183.885 175.109V149.824C183.885 129.092 198.779 119.48 214.613 119.48C232.301 119.48 250.921 131.115 253.249 155.885C254.646 174.594 255.578 213.528 255.578 250.954H255.569Z" fill="#AF6D57"/>
<path d="M243.461 461.815C243.461 437.542 257.423 435.012 272.326 427.433C282.563 422.88 283.494 412.266 283.494 398.101L283.029 182.687C283.029 156.896 299.32 144.764 316.076 144.764C332.833 144.764 351.919 158.414 353.316 184.71C355.179 225.163 356.11 275.227 356.11 314.161C356.11 340.964 355.644 361.19 353.316 391.534C349.59 453.224 325.848 496.206 281.623 496.206C256.949 496.206 243.452 480.533 243.452 461.824L243.461 461.815Z" fill="#AF6D57"/>
<path d="M628.901 250.954C628.901 291.913 627.97 333.376 626.107 358.156C624.244 384.958 606.09 398.102 589.333 398.102C572.577 398.102 556.286 385.464 556.286 361.697V350.577C539.529 374.85 511.595 385.464 482.739 385.464C418.963 385.464 373.341 341.471 373.341 268.651C373.341 195.831 420.36 141.73 485.533 141.73C513.467 141.73 541.857 152.353 557.226 175.109V149.824C557.226 129.092 572.12 119.48 587.945 119.48C605.633 119.48 624.253 131.115 626.581 155.885C627.978 174.594 628.91 213.528 628.91 250.954H628.901ZM557.208 264.098C557.208 226.175 535.329 203.42 502.281 203.42C469.233 203.42 446.422 230.728 446.422 265.11C446.422 303.033 471.096 322.247 501.35 322.247C535.329 322.247 557.208 298.48 557.208 264.098Z" fill="#AF6D57"/>
<path d="M817.892 177.626C817.892 196.841 805.792 216.561 782.981 216.561C774.599 216.561 767.622 214.537 759.705 214.537C734.565 214.537 728.045 236.281 728.045 266.119C728.045 297.981 728.977 351.576 728.977 364.73C728.977 386.473 711.754 398.615 694.066 398.615C678.241 398.615 662.872 389.003 659.621 369.283C657.292 358.162 655.895 302.534 655.895 250.952C655.895 212.017 656.827 174.085 658.69 156.894C662.415 127.562 681.5 113.407 698.723 113.407C713.151 113.407 726.191 124.03 726.191 145.268C726.191 151.845 726.191 160.435 725.725 169.036C737.359 152.351 756.919 140.715 779.721 140.715C806.258 140.715 817.892 159.424 817.892 177.626Z" fill="#AF6D57"/>
<path d="M987.34 177.626C987.34 196.841 975.24 216.561 952.429 216.561C944.046 216.561 937.069 214.537 929.152 214.537C904.013 214.537 897.493 236.281 897.493 266.119C897.493 297.981 898.424 351.576 898.424 364.73C898.424 386.473 881.202 398.615 863.514 398.615C847.688 398.615 832.32 389.003 829.069 369.283C826.74 358.162 825.343 302.534 825.343 250.952C825.343 212.017 826.275 174.085 828.137 156.894C831.863 127.562 850.948 113.407 868.171 113.407C882.599 113.407 895.639 124.03 895.639 145.268C895.639 151.845 895.639 160.435 895.173 169.036C906.807 152.351 926.367 140.715 949.169 140.715C975.706 140.715 987.34 159.424 987.34 177.626Z" fill="#AF6D57"/>
<path d="M1234.99 250.954C1234.99 291.913 1234.06 333.376 1232.2 358.156C1230.34 384.958 1212.18 398.102 1195.42 398.102C1178.67 398.102 1162.38 385.464 1162.38 361.697V350.577C1145.62 374.85 1117.69 385.464 1088.83 385.464C1025.05 385.464 979.432 341.471 979.432 268.651C979.432 195.831 1026.45 141.73 1091.62 141.73C1119.56 141.73 1147.95 152.353 1163.32 175.109V149.824C1163.32 129.092 1178.21 119.48 1194.04 119.48C1211.72 119.48 1230.34 131.115 1232.67 155.885C1234.07 174.594 1235 213.528 1235 250.954H1234.99ZM1163.3 264.098C1163.3 226.175 1141.42 203.42 1108.37 203.42C1075.32 203.42 1052.51 230.728 1052.51 265.11C1052.51 303.033 1077.19 322.247 1107.44 322.247C1141.42 322.247 1163.3 298.48 1163.3 264.098Z" fill="#AF6D57"/>
<path d="M244.099 27.4635C247.437 9.62634 263.271 -3.91082 285.624 1.02626C308.435 6.05703 363.466 47.0995 381.017 70.0611C388.658 80.0008 391.555 89.9312 389.882 98.8498C387.191 113.221 373.108 122.495 355.316 118.57C334.334 113.942 275.81 81.4155 259.053 66.8853C245.936 55.737 241.693 40.3449 244.099 27.4635Z" fill="#AF6D57"/>
<path d="M180.038 261.914C178.331 256.958 174.096 253.033 167.516 250.691C158.901 247.59 142.679 245.66 127.94 245.51C129.915 227.832 130.173 207.718 127.465 198.875C123.283 185.216 112.425 180.466 103.188 183.801C96.5133 186.209 90.6143 192.991 89.2345 203.39C88.1392 211.128 88.2944 228.282 89.3897 243.833C73.1762 243.589 51.7969 244.967 43.4314 247.777C33.3498 251.159 28.5461 260.143 30.8574 268.284C32.289 273.334 36.3165 277.521 42.7587 280.285C51.6761 284.135 69.166 287.217 84.5084 288.126C83.2406 306.516 83.9737 328.222 87.3026 337.31C92.2098 350.678 103.3 354.735 112.347 350.819C118.876 347.99 124.412 340.851 125.232 330.377C125.913 322.583 124.835 305.476 122.912 290.009C139.108 289.232 160.384 286.496 168.586 283.17C178.469 279.161 182.781 269.886 180.038 261.904V261.914Z" fill="#F0D0B3"/>
</g>
</svg>
