<svg width="225" height="225" viewBox="0 0 225 225" fill="none" xmlns="http://www.w3.org/2000/svg">
<path d="M4.5 8.5C6.70914 8.5 8.5 6.70914 8.5 4.5C8.5 2.29086 6.70914 0.5 4.5 0.5C2.29086 0.5 0.5 2.29086 0.5 4.5C0.5 6.70914 2.29086 8.5 4.5 8.5Z" fill="#CDBEBA"/>
<path d="M28.5 8.5C30.7091 8.5 32.5 6.70914 32.5 4.5C32.5 2.29086 30.7091 0.5 28.5 0.5C26.2909 0.5 24.5 2.29086 24.5 4.5C24.5 6.70914 26.2909 8.5 28.5 8.5Z" fill="#CDBEBA"/>
<path d="M56.5 4.5C56.5 6.70914 54.7091 8.5 52.5 8.5C50.2909 8.5 48.5 6.70914 48.5 4.5C48.5 2.29086 50.2909 0.5 52.5 0.5C54.7091 0.5 56.5 2.29086 56.5 4.5Z" fill="#CDBEBA"/>
<path d="M76.5 8.5C78.7091 8.5 80.5 6.70914 80.5 4.5C80.5 2.29086 78.7091 0.5 76.5 0.5C74.2909 0.5 72.5 2.29086 72.5 4.5C72.5 6.70914 74.2909 8.5 76.5 8.5Z" fill="#CDBEBA"/>
<path d="M104.5 4.5C104.5 6.70914 102.709 8.5 100.5 8.5C98.2909 8.5 96.5 6.70914 96.5 4.5C96.5 2.29086 98.2909 0.5 100.5 0.5C102.709 0.5 104.5 2.29086 104.5 4.5Z" fill="#CDBEBA"/>
<path d="M124.5 8.5C126.709 8.5 128.5 6.70914 128.5 4.5C128.5 2.29086 126.709 0.5 124.5 0.5C122.291 0.5 120.5 2.29086 120.5 4.5C120.5 6.70914 122.291 8.5 124.5 8.5Z" fill="#CDBEBA"/>
<path d="M152.5 4.5C152.5 6.70914 150.709 8.5 148.5 8.5C146.291 8.5 144.5 6.70914 144.5 4.5C144.5 2.29086 146.291 0.5 148.5 0.5C150.709 0.5 152.5 2.29086 152.5 4.5Z" fill="#CDBEBA"/>
<path d="M172.5 8.5C174.709 8.5 176.5 6.70914 176.5 4.5C176.5 2.29086 174.709 0.5 172.5 0.5C170.291 0.5 168.5 2.29086 168.5 4.5C168.5 6.70914 170.291 8.5 172.5 8.5Z" fill="#CDBEBA"/>
<path d="M200.5 4.5C200.5 6.70914 198.709 8.5 196.5 8.5C194.291 8.5 192.5 6.70914 192.5 4.5C192.5 2.29086 194.291 0.5 196.5 0.5C198.709 0.5 200.5 2.29086 200.5 4.5Z" fill="#CDBEBA"/>
<path d="M220.5 8.5C222.709 8.5 224.5 6.70914 224.5 4.5C224.5 2.29086 222.709 0.5 220.5 0.5C218.291 0.5 216.5 2.29086 216.5 4.5C216.5 6.70914 218.291 8.5 220.5 8.5Z" fill="#CDBEBA"/>
<path d="M8.5 28.5C8.5 30.7091 6.70914 32.5 4.5 32.5C2.29086 32.5 0.5 30.7091 0.5 28.5C0.5 26.2909 2.29086 24.5 4.5 24.5C6.70914 24.5 8.5 26.2909 8.5 28.5Z" fill="#CDBEBA"/>
<path d="M28.5 32.5C30.7091 32.5 32.5 30.7091 32.5 28.5C32.5 26.2909 30.7091 24.5 28.5 24.5C26.2909 24.5 24.5 26.2909 24.5 28.5C24.5 30.7091 26.2909 32.5 28.5 32.5Z" fill="#CDBEBA"/>
<path d="M56.5 28.5C56.5 30.7091 54.7091 32.5 52.5 32.5C50.2909 32.5 48.5 30.7091 48.5 28.5C48.5 26.2909 50.2909 24.5 52.5 24.5C54.7091 24.5 56.5 26.2909 56.5 28.5Z" fill="#CDBEBA"/>
<path d="M76.5 32.5C78.7091 32.5 80.5 30.7091 80.5 28.5C80.5 26.2909 78.7091 24.5 76.5 24.5C74.2909 24.5 72.5 26.2909 72.5 28.5C72.5 30.7091 74.2909 32.5 76.5 32.5Z" fill="#CDBEBA"/>
<path d="M104.5 28.5C104.5 30.7091 102.709 32.5 100.5 32.5C98.2909 32.5 96.5 30.7091 96.5 28.5C96.5 26.2909 98.2909 24.5 100.5 24.5C102.709 24.5 104.5 26.2909 104.5 28.5Z" fill="#CDBEBA"/>
<path d="M124.5 32.5C126.709 32.5 128.5 30.7091 128.5 28.5C128.5 26.2909 126.709 24.5 124.5 24.5C122.291 24.5 120.5 26.2909 120.5 28.5C120.5 30.7091 122.291 32.5 124.5 32.5Z" fill="#CDBEBA"/>
<path d="M152.5 28.5C152.5 30.7091 150.709 32.5 148.5 32.5C146.291 32.5 144.5 30.7091 144.5 28.5C144.5 26.2909 146.291 24.5 148.5 24.5C150.709 24.5 152.5 26.2909 152.5 28.5Z" fill="#CDBEBA"/>
<path d="M172.5 32.5C174.709 32.5 176.5 30.7091 176.5 28.5C176.5 26.2909 174.709 24.5 172.5 24.5C170.291 24.5 168.5 26.2909 168.5 28.5C168.5 30.7091 170.291 32.5 172.5 32.5Z" fill="#CDBEBA"/>
<path d="M200.5 28.5C200.5 30.7091 198.709 32.5 196.5 32.5C194.291 32.5 192.5 30.7091 192.5 28.5C192.5 26.2909 194.291 24.5 196.5 24.5C198.709 24.5 200.5 26.2909 200.5 28.5Z" fill="#CDBEBA"/>
<path d="M220.5 32.5C222.709 32.5 224.5 30.7091 224.5 28.5C224.5 26.2909 222.709 24.5 220.5 24.5C218.291 24.5 216.5 26.2909 216.5 28.5C216.5 30.7091 218.291 32.5 220.5 32.5Z" fill="#CDBEBA"/>
<path d="M8.5 52.5C8.5 54.7091 6.70914 56.5 4.5 56.5C2.29086 56.5 0.5 54.7091 0.5 52.5C0.5 50.2909 2.29086 48.5 4.5 48.5C6.70914 48.5 8.5 50.2909 8.5 52.5Z" fill="#CDBEBA"/>
<path d="M28.5 56.5C30.7091 56.5 32.5 54.7091 32.5 52.5C32.5 50.2909 30.7091 48.5 28.5 48.5C26.2909 48.5 24.5 50.2909 24.5 52.5C24.5 54.7091 26.2909 56.5 28.5 56.5Z" fill="#CDBEBA"/>
<path d="M56.5 52.5C56.5 54.7091 54.7091 56.5 52.5 56.5C50.2909 56.5 48.5 54.7091 48.5 52.5C48.5 50.2909 50.2909 48.5 52.5 48.5C54.7091 48.5 56.5 50.2909 56.5 52.5Z" fill="#CDBEBA"/>
<path d="M76.5 56.5C78.7091 56.5 80.5 54.7091 80.5 52.5C80.5 50.2909 78.7091 48.5 76.5 48.5C74.2909 48.5 72.5 50.2909 72.5 52.5C72.5 54.7091 74.2909 56.5 76.5 56.5Z" fill="#CDBEBA"/>
<path d="M104.5 52.5C104.5 54.7091 102.709 56.5 100.5 56.5C98.2909 56.5 96.5 54.7091 96.5 52.5C96.5 50.2909 98.2909 48.5 100.5 48.5C102.709 48.5 104.5 50.2909 104.5 52.5Z" fill="#CDBEBA"/>
<path d="M124.5 56.5C126.709 56.5 128.5 54.7091 128.5 52.5C128.5 50.2909 126.709 48.5 124.5 48.5C122.291 48.5 120.5 50.2909 120.5 52.5C120.5 54.7091 122.291 56.5 124.5 56.5Z" fill="#CDBEBA"/>
<path d="M152.5 52.5C152.5 54.7091 150.709 56.5 148.5 56.5C146.291 56.5 144.5 54.7091 144.5 52.5C144.5 50.2909 146.291 48.5 148.5 48.5C150.709 48.5 152.5 50.2909 152.5 52.5Z" fill="#CDBEBA"/>
<path d="M172.5 56.5C174.709 56.5 176.5 54.7091 176.5 52.5C176.5 50.2909 174.709 48.5 172.5 48.5C170.291 48.5 168.5 50.2909 168.5 52.5C168.5 54.7091 170.291 56.5 172.5 56.5Z" fill="#CDBEBA"/>
<path d="M200.5 52.5C200.5 54.7091 198.709 56.5 196.5 56.5C194.291 56.5 192.5 54.7091 192.5 52.5C192.5 50.2909 194.291 48.5 196.5 48.5C198.709 48.5 200.5 50.2909 200.5 52.5Z" fill="#CDBEBA"/>
<path d="M220.5 56.5C222.709 56.5 224.5 54.7091 224.5 52.5C224.5 50.2909 222.709 48.5 220.5 48.5C218.291 48.5 216.5 50.2909 216.5 52.5C216.5 54.7091 218.291 56.5 220.5 56.5Z" fill="#CDBEBA"/>
<path d="M8.5 76.5C8.5 78.7091 6.70914 80.5 4.5 80.5C2.29086 80.5 0.5 78.7091 0.5 76.5C0.5 74.2909 2.29086 72.5 4.5 72.5C6.70914 72.5 8.5 74.2909 8.5 76.5Z" fill="#CDBEBA"/>
<path d="M28.5 80.5C30.7091 80.5 32.5 78.7091 32.5 76.5C32.5 74.2909 30.7091 72.5 28.5 72.5C26.2909 72.5 24.5 74.2909 24.5 76.5C24.5 78.7091 26.2909 80.5 28.5 80.5Z" fill="#CDBEBA"/>
<path d="M56.5 76.5C56.5 78.7091 54.7091 80.5 52.5 80.5C50.2909 80.5 48.5 78.7091 48.5 76.5C48.5 74.2909 50.2909 72.5 52.5 72.5C54.7091 72.5 56.5 74.2909 56.5 76.5Z" fill="#CDBEBA"/>
<path d="M76.5 80.5C78.7091 80.5 80.5 78.7091 80.5 76.5C80.5 74.2909 78.7091 72.5 76.5 72.5C74.2909 72.5 72.5 74.2909 72.5 76.5C72.5 78.7091 74.2909 80.5 76.5 80.5Z" fill="#CDBEBA"/>
<path d="M104.5 76.5C104.5 78.7091 102.709 80.5 100.5 80.5C98.2909 80.5 96.5 78.7091 96.5 76.5C96.5 74.2909 98.2909 72.5 100.5 72.5C102.709 72.5 104.5 74.2909 104.5 76.5Z" fill="#CDBEBA"/>
<path d="M124.5 80.5C126.709 80.5 128.5 78.7091 128.5 76.5C128.5 74.2909 126.709 72.5 124.5 72.5C122.291 72.5 120.5 74.2909 120.5 76.5C120.5 78.7091 122.291 80.5 124.5 80.5Z" fill="#CDBEBA"/>
<path d="M152.5 76.5C152.5 78.7091 150.709 80.5 148.5 80.5C146.291 80.5 144.5 78.7091 144.5 76.5C144.5 74.2909 146.291 72.5 148.5 72.5C150.709 72.5 152.5 74.2909 152.5 76.5Z" fill="#CDBEBA"/>
<path d="M172.5 80.5C174.709 80.5 176.5 78.7091 176.5 76.5C176.5 74.2909 174.709 72.5 172.5 72.5C170.291 72.5 168.5 74.2909 168.5 76.5C168.5 78.7091 170.291 80.5 172.5 80.5Z" fill="#CDBEBA"/>
<path d="M200.5 76.5C200.5 78.7091 198.709 80.5 196.5 80.5C194.291 80.5 192.5 78.7091 192.5 76.5C192.5 74.2909 194.291 72.5 196.5 72.5C198.709 72.5 200.5 74.2909 200.5 76.5Z" fill="#CDBEBA"/>
<path d="M220.5 80.5C222.709 80.5 224.5 78.7091 224.5 76.5C224.5 74.2909 222.709 72.5 220.5 72.5C218.291 72.5 216.5 74.2909 216.5 76.5C216.5 78.7091 218.291 80.5 220.5 80.5Z" fill="#CDBEBA"/>
<path d="M8.5 100.5C8.5 102.709 6.70914 104.5 4.5 104.5C2.29086 104.5 0.5 102.709 0.5 100.5C0.5 98.2909 2.29086 96.5 4.5 96.5C6.70914 96.5 8.5 98.2909 8.5 100.5Z" fill="#CDBEBA"/>
<path d="M28.5 104.5C30.7091 104.5 32.5 102.709 32.5 100.5C32.5 98.2909 30.7091 96.5 28.5 96.5C26.2909 96.5 24.5 98.2909 24.5 100.5C24.5 102.709 26.2909 104.5 28.5 104.5Z" fill="#CDBEBA"/>
<path d="M56.5 100.5C56.5 102.709 54.7091 104.5 52.5 104.5C50.2909 104.5 48.5 102.709 48.5 100.5C48.5 98.2909 50.2909 96.5 52.5 96.5C54.7091 96.5 56.5 98.2909 56.5 100.5Z" fill="#CDBEBA"/>
<path d="M76.5 104.5C78.7091 104.5 80.5 102.709 80.5 100.5C80.5 98.2909 78.7091 96.5 76.5 96.5C74.2909 96.5 72.5 98.2909 72.5 100.5C72.5 102.709 74.2909 104.5 76.5 104.5Z" fill="#CDBEBA"/>
<path d="M104.5 100.5C104.5 102.709 102.709 104.5 100.5 104.5C98.2909 104.5 96.5 102.709 96.5 100.5C96.5 98.2909 98.2909 96.5 100.5 96.5C102.709 96.5 104.5 98.2909 104.5 100.5Z" fill="#CDBEBA"/>
<path d="M124.5 104.5C126.709 104.5 128.5 102.709 128.5 100.5C128.5 98.2909 126.709 96.5 124.5 96.5C122.291 96.5 120.5 98.2909 120.5 100.5C120.5 102.709 122.291 104.5 124.5 104.5Z" fill="#CDBEBA"/>
<path d="M152.5 100.5C152.5 102.709 150.709 104.5 148.5 104.5C146.291 104.5 144.5 102.709 144.5 100.5C144.5 98.2909 146.291 96.5 148.5 96.5C150.709 96.5 152.5 98.2909 152.5 100.5Z" fill="#CDBEBA"/>
<path d="M172.5 104.5C174.709 104.5 176.5 102.709 176.5 100.5C176.5 98.2909 174.709 96.5 172.5 96.5C170.291 96.5 168.5 98.2909 168.5 100.5C168.5 102.709 170.291 104.5 172.5 104.5Z" fill="#CDBEBA"/>
<path d="M200.5 100.5C200.5 102.709 198.709 104.5 196.5 104.5C194.291 104.5 192.5 102.709 192.5 100.5C192.5 98.2909 194.291 96.5 196.5 96.5C198.709 96.5 200.5 98.2909 200.5 100.5Z" fill="#CDBEBA"/>
<path d="M220.5 104.5C222.709 104.5 224.5 102.709 224.5 100.5C224.5 98.2909 222.709 96.5 220.5 96.5C218.291 96.5 216.5 98.2909 216.5 100.5C216.5 102.709 218.291 104.5 220.5 104.5Z" fill="#CDBEBA"/>
<path d="M8.5 124.5C8.5 126.709 6.70914 128.5 4.5 128.5C2.29086 128.5 0.5 126.709 0.5 124.5C0.5 122.291 2.29086 120.5 4.5 120.5C6.70914 120.5 8.5 122.291 8.5 124.5Z" fill="#CDBEBA"/>
<path d="M28.5 128.5C30.7091 128.5 32.5 126.709 32.5 124.5C32.5 122.291 30.7091 120.5 28.5 120.5C26.2909 120.5 24.5 122.291 24.5 124.5C24.5 126.709 26.2909 128.5 28.5 128.5Z" fill="#CDBEBA"/>
<path d="M56.5 124.5C56.5 126.709 54.7091 128.5 52.5 128.5C50.2909 128.5 48.5 126.709 48.5 124.5C48.5 122.291 50.2909 120.5 52.5 120.5C54.7091 120.5 56.5 122.291 56.5 124.5Z" fill="#CDBEBA"/>
<path d="M76.5 128.5C78.7091 128.5 80.5 126.709 80.5 124.5C80.5 122.291 78.7091 120.5 76.5 120.5C74.2909 120.5 72.5 122.291 72.5 124.5C72.5 126.709 74.2909 128.5 76.5 128.5Z" fill="#CDBEBA"/>
<path d="M104.5 124.5C104.5 126.709 102.709 128.5 100.5 128.5C98.2909 128.5 96.5 126.709 96.5 124.5C96.5 122.291 98.2909 120.5 100.5 120.5C102.709 120.5 104.5 122.291 104.5 124.5Z" fill="#CDBEBA"/>
<path d="M124.5 128.5C126.709 128.5 128.5 126.709 128.5 124.5C128.5 122.291 126.709 120.5 124.5 120.5C122.291 120.5 120.5 122.291 120.5 124.5C120.5 126.709 122.291 128.5 124.5 128.5Z" fill="#CDBEBA"/>
<path d="M152.5 124.5C152.5 126.709 150.709 128.5 148.5 128.5C146.291 128.5 144.5 126.709 144.5 124.5C144.5 122.291 146.291 120.5 148.5 120.5C150.709 120.5 152.5 122.291 152.5 124.5Z" fill="#CDBEBA"/>
<path d="M172.5 128.5C174.709 128.5 176.5 126.709 176.5 124.5C176.5 122.291 174.709 120.5 172.5 120.5C170.291 120.5 168.5 122.291 168.5 124.5C168.5 126.709 170.291 128.5 172.5 128.5Z" fill="#CDBEBA"/>
<path d="M200.5 124.5C200.5 126.709 198.709 128.5 196.5 128.5C194.291 128.5 192.5 126.709 192.5 124.5C192.5 122.291 194.291 120.5 196.5 120.5C198.709 120.5 200.5 122.291 200.5 124.5Z" fill="#CDBEBA"/>
<path d="M220.5 128.5C222.709 128.5 224.5 126.709 224.5 124.5C224.5 122.291 222.709 120.5 220.5 120.5C218.291 120.5 216.5 122.291 216.5 124.5C216.5 126.709 218.291 128.5 220.5 128.5Z" fill="#CDBEBA"/>
<path d="M8.5 148.5C8.5 150.709 6.70914 152.5 4.5 152.5C2.29086 152.5 0.5 150.709 0.5 148.5C0.5 146.291 2.29086 144.5 4.5 144.5C6.70914 144.5 8.5 146.291 8.5 148.5Z" fill="#CDBEBA"/>
<path d="M28.5 152.5C30.7091 152.5 32.5 150.709 32.5 148.5C32.5 146.291 30.7091 144.5 28.5 144.5C26.2909 144.5 24.5 146.291 24.5 148.5C24.5 150.709 26.2909 152.5 28.5 152.5Z" fill="#CDBEBA"/>
<path d="M56.5 148.5C56.5 150.709 54.7091 152.5 52.5 152.5C50.2909 152.5 48.5 150.709 48.5 148.5C48.5 146.291 50.2909 144.5 52.5 144.5C54.7091 144.5 56.5 146.291 56.5 148.5Z" fill="#CDBEBA"/>
<path d="M76.5 152.5C78.7091 152.5 80.5 150.709 80.5 148.5C80.5 146.291 78.7091 144.5 76.5 144.5C74.2909 144.5 72.5 146.291 72.5 148.5C72.5 150.709 74.2909 152.5 76.5 152.5Z" fill="#CDBEBA"/>
<path d="M104.5 148.5C104.5 150.709 102.709 152.5 100.5 152.5C98.2909 152.5 96.5 150.709 96.5 148.5C96.5 146.291 98.2909 144.5 100.5 144.5C102.709 144.5 104.5 146.291 104.5 148.5Z" fill="#CDBEBA"/>
<path d="M124.5 152.5C126.709 152.5 128.5 150.709 128.5 148.5C128.5 146.291 126.709 144.5 124.5 144.5C122.291 144.5 120.5 146.291 120.5 148.5C120.5 150.709 122.291 152.5 124.5 152.5Z" fill="#CDBEBA"/>
<path d="M152.5 148.5C152.5 150.709 150.709 152.5 148.5 152.5C146.291 152.5 144.5 150.709 144.5 148.5C144.5 146.291 146.291 144.5 148.5 144.5C150.709 144.5 152.5 146.291 152.5 148.5Z" fill="#CDBEBA"/>
<path d="M172.5 152.5C174.709 152.5 176.5 150.709 176.5 148.5C176.5 146.291 174.709 144.5 172.5 144.5C170.291 144.5 168.5 146.291 168.5 148.5C168.5 150.709 170.291 152.5 172.5 152.5Z" fill="#CDBEBA"/>
<path d="M200.5 148.5C200.5 150.709 198.709 152.5 196.5 152.5C194.291 152.5 192.5 150.709 192.5 148.5C192.5 146.291 194.291 144.5 196.5 144.5C198.709 144.5 200.5 146.291 200.5 148.5Z" fill="#CDBEBA"/>
<path d="M220.5 152.5C222.709 152.5 224.5 150.709 224.5 148.5C224.5 146.291 222.709 144.5 220.5 144.5C218.291 144.5 216.5 146.291 216.5 148.5C216.5 150.709 218.291 152.5 220.5 152.5Z" fill="#CDBEBA"/>
<path d="M8.5 172.5C8.5 174.709 6.70914 176.5 4.5 176.5C2.29086 176.5 0.5 174.709 0.5 172.5C0.5 170.291 2.29086 168.5 4.5 168.5C6.70914 168.5 8.5 170.291 8.5 172.5Z" fill="#CDBEBA"/>
<path d="M28.5 176.5C30.7091 176.5 32.5 174.709 32.5 172.5C32.5 170.291 30.7091 168.5 28.5 168.5C26.2909 168.5 24.5 170.291 24.5 172.5C24.5 174.709 26.2909 176.5 28.5 176.5Z" fill="#CDBEBA"/>
<path d="M56.5 172.5C56.5 174.709 54.7091 176.5 52.5 176.5C50.2909 176.5 48.5 174.709 48.5 172.5C48.5 170.291 50.2909 168.5 52.5 168.5C54.7091 168.5 56.5 170.291 56.5 172.5Z" fill="#CDBEBA"/>
<path d="M76.5 176.5C78.7091 176.5 80.5 174.709 80.5 172.5C80.5 170.291 78.7091 168.5 76.5 168.5C74.2909 168.5 72.5 170.291 72.5 172.5C72.5 174.709 74.2909 176.5 76.5 176.5Z" fill="#CDBEBA"/>
<path d="M104.5 172.5C104.5 174.709 102.709 176.5 100.5 176.5C98.2909 176.5 96.5 174.709 96.5 172.5C96.5 170.291 98.2909 168.5 100.5 168.5C102.709 168.5 104.5 170.291 104.5 172.5Z" fill="#CDBEBA"/>
<path d="M124.5 176.5C126.709 176.5 128.5 174.709 128.5 172.5C128.5 170.291 126.709 168.5 124.5 168.5C122.291 168.5 120.5 170.291 120.5 172.5C120.5 174.709 122.291 176.5 124.5 176.5Z" fill="#CDBEBA"/>
<path d="M152.5 172.5C152.5 174.709 150.709 176.5 148.5 176.5C146.291 176.5 144.5 174.709 144.5 172.5C144.5 170.291 146.291 168.5 148.5 168.5C150.709 168.5 152.5 170.291 152.5 172.5Z" fill="#CDBEBA"/>
<path d="M172.5 176.5C174.709 176.5 176.5 174.709 176.5 172.5C176.5 170.291 174.709 168.5 172.5 168.5C170.291 168.5 168.5 170.291 168.5 172.5C168.5 174.709 170.291 176.5 172.5 176.5Z" fill="#CDBEBA"/>
<path d="M200.5 172.5C200.5 174.709 198.709 176.5 196.5 176.5C194.291 176.5 192.5 174.709 192.5 172.5C192.5 170.291 194.291 168.5 196.5 168.5C198.709 168.5 200.5 170.291 200.5 172.5Z" fill="#CDBEBA"/>
<path d="M220.5 176.5C222.709 176.5 224.5 174.709 224.5 172.5C224.5 170.291 222.709 168.5 220.5 168.5C218.291 168.5 216.5 170.291 216.5 172.5C216.5 174.709 218.291 176.5 220.5 176.5Z" fill="#CDBEBA"/>
<path d="M8.5 196.5C8.5 198.709 6.70914 200.5 4.5 200.5C2.29086 200.5 0.5 198.709 0.5 196.5C0.5 194.291 2.29086 192.5 4.5 192.5C6.70914 192.5 8.5 194.291 8.5 196.5Z" fill="#CDBEBA"/>
<path d="M28.5 200.5C30.7091 200.5 32.5 198.709 32.5 196.5C32.5 194.291 30.7091 192.5 28.5 192.5C26.2909 192.5 24.5 194.291 24.5 196.5C24.5 198.709 26.2909 200.5 28.5 200.5Z" fill="#CDBEBA"/>
<path d="M56.5 196.5C56.5 198.709 54.7091 200.5 52.5 200.5C50.2909 200.5 48.5 198.709 48.5 196.5C48.5 194.291 50.2909 192.5 52.5 192.5C54.7091 192.5 56.5 194.291 56.5 196.5Z" fill="#CDBEBA"/>
<path d="M76.5 200.5C78.7091 200.5 80.5 198.709 80.5 196.5C80.5 194.291 78.7091 192.5 76.5 192.5C74.2909 192.5 72.5 194.291 72.5 196.5C72.5 198.709 74.2909 200.5 76.5 200.5Z" fill="#CDBEBA"/>
<path d="M104.5 196.5C104.5 198.709 102.709 200.5 100.5 200.5C98.2909 200.5 96.5 198.709 96.5 196.5C96.5 194.291 98.2909 192.5 100.5 192.5C102.709 192.5 104.5 194.291 104.5 196.5Z" fill="#CDBEBA"/>
<path d="M124.5 200.5C126.709 200.5 128.5 198.709 128.5 196.5C128.5 194.291 126.709 192.5 124.5 192.5C122.291 192.5 120.5 194.291 120.5 196.5C120.5 198.709 122.291 200.5 124.5 200.5Z" fill="#CDBEBA"/>
<path d="M152.5 196.5C152.5 198.709 150.709 200.5 148.5 200.5C146.291 200.5 144.5 198.709 144.5 196.5C144.5 194.291 146.291 192.5 148.5 192.5C150.709 192.5 152.5 194.291 152.5 196.5Z" fill="#CDBEBA"/>
<path d="M172.5 200.5C174.709 200.5 176.5 198.709 176.5 196.5C176.5 194.291 174.709 192.5 172.5 192.5C170.291 192.5 168.5 194.291 168.5 196.5C168.5 198.709 170.291 200.5 172.5 200.5Z" fill="#CDBEBA"/>
<path d="M200.5 196.5C200.5 198.709 198.709 200.5 196.5 200.5C194.291 200.5 192.5 198.709 192.5 196.5C192.5 194.291 194.291 192.5 196.5 192.5C198.709 192.5 200.5 194.291 200.5 196.5Z" fill="#CDBEBA"/>
<path d="M220.5 200.5C222.709 200.5 224.5 198.709 224.5 196.5C224.5 194.291 222.709 192.5 220.5 192.5C218.291 192.5 216.5 194.291 216.5 196.5C216.5 198.709 218.291 200.5 220.5 200.5Z" fill="#CDBEBA"/>
<path d="M8.5 220.5C8.5 222.709 6.70914 224.5 4.5 224.5C2.29086 224.5 0.5 222.709 0.5 220.5C0.5 218.291 2.29086 216.5 4.5 216.5C6.70914 216.5 8.5 218.291 8.5 220.5Z" fill="#CDBEBA"/>
<path d="M28.5 224.5C30.7091 224.5 32.5 222.709 32.5 220.5C32.5 218.291 30.7091 216.5 28.5 216.5C26.2909 216.5 24.5 218.291 24.5 220.5C24.5 222.709 26.2909 224.5 28.5 224.5Z" fill="#CDBEBA"/>
<path d="M56.5 220.5C56.5 222.709 54.7091 224.5 52.5 224.5C50.2909 224.5 48.5 222.709 48.5 220.5C48.5 218.291 50.2909 216.5 52.5 216.5C54.7091 216.5 56.5 218.291 56.5 220.5Z" fill="#CDBEBA"/>
<path d="M76.5 224.5C78.7091 224.5 80.5 222.709 80.5 220.5C80.5 218.291 78.7091 216.5 76.5 216.5C74.2909 216.5 72.5 218.291 72.5 220.5C72.5 222.709 74.2909 224.5 76.5 224.5Z" fill="#CDBEBA"/>
<path d="M104.5 220.5C104.5 222.709 102.709 224.5 100.5 224.5C98.2909 224.5 96.5 222.709 96.5 220.5C96.5 218.291 98.2909 216.5 100.5 216.5C102.709 216.5 104.5 218.291 104.5 220.5Z" fill="#CDBEBA"/>
<path d="M124.5 224.5C126.709 224.5 128.5 222.709 128.5 220.5C128.5 218.291 126.709 216.5 124.5 216.5C122.291 216.5 120.5 218.291 120.5 220.5C120.5 222.709 122.291 224.5 124.5 224.5Z" fill="#CDBEBA"/>
<path d="M152.5 220.5C152.5 222.709 150.709 224.5 148.5 224.5C146.291 224.5 144.5 222.709 144.5 220.5C144.5 218.291 146.291 216.5 148.5 216.5C150.709 216.5 152.5 218.291 152.5 220.5Z" fill="#CDBEBA"/>
<path d="M172.5 224.5C174.709 224.5 176.5 222.709 176.5 220.5C176.5 218.291 174.709 216.5 172.5 216.5C170.291 216.5 168.5 218.291 168.5 220.5C168.5 222.709 170.291 224.5 172.5 224.5Z" fill="#CDBEBA"/>
<path d="M200.5 220.5C200.5 222.709 198.709 224.5 196.5 224.5C194.291 224.5 192.5 222.709 192.5 220.5C192.5 218.291 194.291 216.5 196.5 216.5C198.709 216.5 200.5 218.291 200.5 220.5Z" fill="#CDBEBA"/>
<path d="M220.5 224.5C222.709 224.5 224.5 222.709 224.5 220.5C224.5 218.291 222.709 216.5 220.5 216.5C218.291 216.5 216.5 218.291 216.5 220.5C216.5 222.709 218.291 224.5 220.5 224.5Z" fill="#CDBEBA"/>
</svg>
