<svg width="144" height="51" viewBox="0 0 144 51" fill="none" xmlns="http://www.w3.org/2000/svg">
<rect x="0.5" y="0.5" width="143" height="50" rx="25" fill="#424142"/>
<rect x="0.5" y="0.5" width="143" height="50" rx="25" fill="black" fill-opacity="0.2"/>
<rect x="0.5" y="0.5" width="143" height="50" rx="25" fill="black" fill-opacity="0.2"/>
<rect x="0.5" y="0.5" width="143" height="50" rx="25" fill="black" fill-opacity="0.2"/>
<rect x="0.5" y="0.5" width="143" height="50" rx="25" fill="black" fill-opacity="0.2"/>
<rect x="0.5" y="0.5" width="143" height="50" rx="25" fill="black" fill-opacity="0.2"/>
<rect x="0.5" y="0.5" width="143" height="50" rx="25" fill="black" fill-opacity="0.2"/>
<rect x="0.5" y="0.5" width="143" height="50" rx="25" fill="black" fill-opacity="0.2"/>
<rect x="0.5" y="0.5" width="143" height="50" rx="25" fill="black" fill-opacity="0.2"/>
<rect x="0.5" y="0.5" width="143" height="50" rx="25" fill="black" fill-opacity="0.2"/>
<rect x="0.5" y="0.5" width="143" height="50" rx="25" fill="black" fill-opacity="0.2"/>
<rect x="0.5" y="0.5" width="143" height="50" rx="25" stroke="#A6A6A6"/>
<path d="M25.8048 24.9617L16.0896 35.5059C16.0905 35.5078 16.0905 35.5106 16.0914 35.5125C16.3898 36.6574 17.4118 37.5 18.6254 37.5C19.1108 37.5 19.5662 37.3656 19.9567 37.1305L19.9877 37.1118L30.9229 30.6593L25.8048 24.9617Z" fill="#EA4335"/>
<path d="M35.6331 23.1662L35.624 23.1597L30.9028 20.3612L25.5839 25.2013L30.922 30.6582L35.6176 27.8878C36.4407 27.4324 37 26.545 37 25.5223C37 24.5052 36.4489 23.6225 35.6331 23.1662Z" fill="#FBBC04"/>
<path d="M16.0894 15.4932C16.031 15.7135 16 15.9449 16 16.1838V34.8163C16 35.0552 16.031 35.2866 16.0903 35.5059L26.1386 25.2313L16.0894 15.4932Z" fill="#4285F4"/>
<path d="M25.8766 25.5L30.9044 20.3594L19.9819 13.8836C19.585 13.6401 19.1214 13.5001 18.626 13.5001C17.4124 13.5001 16.3886 14.3446 16.0902 15.4904C16.0902 15.4914 16.0893 15.4923 16.0893 15.4932L25.8766 25.5Z" fill="#34A853"/>
<path d="M49.944 20.108C49.016 20.108 48.24 19.936 47.616 19.592C46.992 19.248 46.524 18.752 46.212 18.104C45.9 17.456 45.744 16.68 45.744 15.776C45.744 14.88 45.908 14.108 46.236 13.46C46.564 12.812 47.036 12.312 47.652 11.96C48.268 11.608 49.012 11.432 49.884 11.432C50.5 11.432 51.032 11.524 51.48 11.708C51.936 11.884 52.344 12.148 52.704 12.5L52.332 13.28C52.068 13.048 51.812 12.864 51.564 12.728C51.324 12.592 51.072 12.492 50.808 12.428C50.544 12.356 50.236 12.32 49.884 12.32C48.884 12.32 48.116 12.624 47.58 13.232C47.052 13.832 46.788 14.684 46.788 15.788C46.788 16.9 47.044 17.752 47.556 18.344C48.076 18.936 48.88 19.232 49.968 19.232C50.368 19.232 50.748 19.196 51.108 19.124C51.476 19.044 51.832 18.932 52.176 18.788L51.96 19.328V16.352H49.8V15.572H52.812V19.496C52.468 19.68 52.032 19.828 51.504 19.94C50.984 20.052 50.464 20.108 49.944 20.108ZM54.8333 20V11.54H60.2333V12.356H55.8053V15.296H59.9693V16.124H55.8053V19.172H60.2333V20H54.8333ZM63.7877 20V12.38H60.7997V11.54H67.7597V12.38H64.7837V20H63.7877ZM72.1068 20V11.54H73.1028V20H72.1068ZM77.2643 20V12.38H74.2763V11.54H81.2363V12.38H78.2603V20H77.2643ZM85.2713 15.764C85.2713 14.868 85.4233 14.1 85.7273 13.46C86.0393 12.812 86.4833 12.312 87.0593 11.96C87.6433 11.608 88.3433 11.432 89.1593 11.432C89.9513 11.432 90.6393 11.608 91.2233 11.96C91.8073 12.312 92.2553 12.812 92.5673 13.46C92.8873 14.1 93.0473 14.864 93.0473 15.752C93.0473 16.648 92.8873 17.42 92.5673 18.068C92.2473 18.716 91.7953 19.22 91.2113 19.58C90.6353 19.932 89.9513 20.108 89.1593 20.108C88.3433 20.108 87.6473 19.932 87.0713 19.58C86.4953 19.22 86.0513 18.716 85.7393 18.068C85.4273 17.42 85.2713 16.652 85.2713 15.764ZM86.3153 15.764C86.3153 16.852 86.5553 17.704 87.0353 18.32C87.5153 18.928 88.2233 19.232 89.1593 19.232C90.0553 19.232 90.7513 18.928 91.2473 18.32C91.7513 17.704 92.0033 16.852 92.0033 15.764C92.0033 14.668 91.7553 13.82 91.2593 13.22C90.7633 12.612 90.0633 12.308 89.1593 12.308C88.2233 12.308 87.5153 12.612 87.0353 13.22C86.5553 13.82 86.3153 14.668 86.3153 15.764ZM94.8529 20V11.54H95.6329L101.057 18.74H100.781V11.54H101.705V20H100.937L95.5129 12.8H95.7769V20H94.8529Z" fill="white"/>
<path d="M45 39L50.104 27.72H51.832L57 39H54.904L53.528 35.832L54.36 36.392H47.592L48.456 35.832L47.08 39H45ZM50.952 29.928L48.696 35.272L48.28 34.776H53.656L53.32 35.272L51.016 29.928H50.952ZM58.088 42.456V32.936C58.088 32.6053 58.0773 32.2693 58.056 31.928C58.0347 31.5867 58.0027 31.2507 57.96 30.92H59.896L60.072 32.616H59.896C60.056 32.0507 60.392 31.6027 60.904 31.272C61.4267 30.9307 62.0293 30.76 62.712 30.76C63.4267 30.76 64.0507 30.9307 64.584 31.272C65.1173 31.6027 65.5333 32.0827 65.832 32.712C66.1307 33.3307 66.28 34.0773 66.28 34.952C66.28 35.8267 66.1307 36.5787 65.832 37.208C65.5333 37.8373 65.1173 38.3227 64.584 38.664C64.0507 38.9947 63.4267 39.16 62.712 39.16C62.04 39.16 61.448 38.9947 60.936 38.664C60.424 38.3333 60.0827 37.8907 59.912 37.336H60.088V42.456H58.088ZM62.152 37.624C62.792 37.624 63.304 37.4053 63.688 36.968C64.072 36.52 64.264 35.848 64.264 34.952C64.264 34.056 64.072 33.3893 63.688 32.952C63.304 32.5147 62.792 32.296 62.152 32.296C61.5227 32.296 61.016 32.5147 60.632 32.952C60.248 33.3893 60.056 34.056 60.056 34.952C60.056 35.848 60.248 36.52 60.632 36.968C61.016 37.4053 61.5227 37.624 62.152 37.624ZM68.0099 42.456V32.936C68.0099 32.6053 67.9992 32.2693 67.9779 31.928C67.9565 31.5867 67.9245 31.2507 67.8819 30.92H69.8179L69.9939 32.616H69.8179C69.9779 32.0507 70.3139 31.6027 70.8259 31.272C71.3485 30.9307 71.9512 30.76 72.6339 30.76C73.3485 30.76 73.9725 30.9307 74.5059 31.272C75.0392 31.6027 75.4552 32.0827 75.7539 32.712C76.0525 33.3307 76.2019 34.0773 76.2019 34.952C76.2019 35.8267 76.0525 36.5787 75.7539 37.208C75.4552 37.8373 75.0392 38.3227 74.5059 38.664C73.9725 38.9947 73.3485 39.16 72.6339 39.16C71.9619 39.16 71.3699 38.9947 70.8579 38.664C70.3459 38.3333 70.0045 37.8907 69.8339 37.336H70.0099V42.456H68.0099ZM72.0739 37.624C72.7139 37.624 73.2259 37.4053 73.6099 36.968C73.9939 36.52 74.1859 35.848 74.1859 34.952C74.1859 34.056 73.9939 33.3893 73.6099 32.952C73.2259 32.5147 72.7139 32.296 72.0739 32.296C71.4445 32.296 70.9379 32.5147 70.5539 32.952C70.1699 33.3893 69.9779 34.056 69.9779 34.952C69.9779 35.848 70.1699 36.52 70.5539 36.968C70.9379 37.4053 71.4445 37.624 72.0739 37.624ZM86.4184 39.16C85.5117 39.16 84.6744 39.048 83.9064 38.824C83.149 38.5893 82.4984 38.2693 81.9544 37.864L82.5944 36.248C82.957 36.504 83.3357 36.7227 83.7304 36.904C84.125 37.0747 84.5464 37.208 84.9944 37.304C85.4424 37.3893 85.917 37.432 86.4184 37.432C87.261 37.432 87.869 37.2933 88.2424 37.016C88.6157 36.7387 88.8024 36.376 88.8024 35.928C88.8024 35.5333 88.6744 35.2347 88.4184 35.032C88.1624 34.8187 87.7037 34.6427 87.0424 34.504L85.2344 34.136C84.1997 33.9227 83.4264 33.5653 82.9144 33.064C82.4024 32.5627 82.1464 31.8907 82.1464 31.048C82.1464 30.344 82.333 29.7307 82.7064 29.208C83.0797 28.6853 83.6024 28.28 84.2744 27.992C84.9464 27.704 85.7304 27.56 86.6264 27.56C87.4264 27.56 88.1677 27.6773 88.8504 27.912C89.533 28.136 90.1037 28.4613 90.5624 28.888L89.9224 30.424C89.4637 30.04 88.9624 29.7573 88.4184 29.576C87.8744 29.384 87.2664 29.288 86.5944 29.288C85.837 29.288 85.245 29.4373 84.8184 29.736C84.4024 30.024 84.1944 30.424 84.1944 30.936C84.1944 31.3307 84.3224 31.6453 84.5784 31.88C84.845 32.1147 85.293 32.296 85.9224 32.424L87.7144 32.776C88.781 32.9893 89.5704 33.3413 90.0824 33.832C90.5944 34.312 90.8504 34.9627 90.8504 35.784C90.8504 36.456 90.669 37.048 90.3064 37.56C89.9437 38.0613 89.4317 38.456 88.7704 38.744C88.109 39.0213 87.325 39.16 86.4184 39.16ZM96.0128 39.16C95.0528 39.16 94.3274 38.9093 93.8368 38.408C93.3461 37.9067 93.1008 37.1547 93.1008 36.152V32.424H91.5488V30.92H93.1008V28.856L95.1008 28.344V30.92H97.2608V32.424H95.1008V36.024C95.1008 36.5787 95.2074 36.968 95.4208 37.192C95.6341 37.416 95.9274 37.528 96.3008 37.528C96.5034 37.528 96.6741 37.512 96.8128 37.48C96.9621 37.448 97.1061 37.4053 97.2448 37.352V38.936C97.0634 39.0107 96.8608 39.064 96.6368 39.096C96.4234 39.1387 96.2154 39.16 96.0128 39.16ZM102.189 39.16C101.357 39.16 100.637 38.9893 100.029 38.648C99.4211 38.3067 98.9465 37.8213 98.6051 37.192C98.2745 36.5627 98.1091 35.816 98.1091 34.952C98.1091 34.088 98.2745 33.3467 98.6051 32.728C98.9465 32.0987 99.4211 31.6133 100.029 31.272C100.637 30.9307 101.357 30.76 102.189 30.76C103.021 30.76 103.741 30.9307 104.349 31.272C104.968 31.6133 105.442 32.0987 105.773 32.728C106.114 33.3467 106.285 34.088 106.285 34.952C106.285 35.816 106.114 36.5627 105.773 37.192C105.442 37.8213 104.968 38.3067 104.349 38.648C103.741 38.9893 103.021 39.16 102.189 39.16ZM102.189 37.624C102.818 37.624 103.32 37.4053 103.693 36.968C104.066 36.52 104.253 35.848 104.253 34.952C104.253 34.056 104.066 33.3893 103.693 32.952C103.32 32.5147 102.818 32.296 102.189 32.296C101.56 32.296 101.058 32.5147 100.685 32.952C100.312 33.3893 100.125 34.056 100.125 34.952C100.125 35.848 100.312 36.52 100.685 36.968C101.058 37.4053 101.56 37.624 102.189 37.624ZM107.994 39V32.984C107.994 32.6427 107.983 32.296 107.962 31.944C107.951 31.592 107.925 31.2507 107.882 30.92H109.818L110.042 33.128H109.722C109.829 32.5947 110.005 32.152 110.25 31.8C110.506 31.448 110.815 31.1867 111.178 31.016C111.541 30.8453 111.935 30.76 112.362 30.76C112.554 30.76 112.709 30.7707 112.826 30.792C112.943 30.8027 113.061 30.8293 113.178 30.872L113.162 32.632C112.959 32.5467 112.783 32.4933 112.634 32.472C112.495 32.4507 112.319 32.44 112.106 32.44C111.647 32.44 111.258 32.536 110.938 32.728C110.629 32.92 110.394 33.1867 110.234 33.528C110.085 33.8693 110.01 34.2587 110.01 34.696V39H107.994ZM118.07 39.16C116.715 39.16 115.654 38.7867 114.886 38.04C114.118 37.2933 113.734 36.2693 113.734 34.968C113.734 34.1253 113.899 33.3893 114.23 32.76C114.561 32.1307 115.019 31.64 115.606 31.288C116.203 30.936 116.897 30.76 117.686 30.76C118.465 30.76 119.115 30.9253 119.638 31.256C120.161 31.5867 120.555 32.0507 120.822 32.648C121.099 33.2453 121.238 33.944 121.238 34.744V35.272H115.35V34.216H119.814L119.542 34.44C119.542 33.6933 119.382 33.1227 119.062 32.728C118.753 32.3333 118.299 32.136 117.702 32.136C117.041 32.136 116.529 32.3707 116.166 32.84C115.814 33.3093 115.638 33.9653 115.638 34.808V35.016C115.638 35.8907 115.851 36.5467 116.278 36.984C116.715 37.4107 117.329 37.624 118.118 37.624C118.577 37.624 119.003 37.5653 119.398 37.448C119.803 37.32 120.187 37.1173 120.55 36.84L121.142 38.184C120.758 38.4933 120.299 38.7333 119.766 38.904C119.233 39.0747 118.667 39.16 118.07 39.16Z" fill="white"/>
</svg>
