<svg width="20" height="20" viewBox="0 0 20 20" fill="none" xmlns="http://www.w3.org/2000/svg">
<path d="M8.56 3.0875C8.647 3.2267 8.70573 3.38168 8.73284 3.54358C8.75995 3.70548 8.7549 3.87113 8.71799 4.03108C8.68108 4.19103 8.61303 4.34214 8.51772 4.47579C8.4224 4.60944 8.3017 4.723 8.1625 4.81C6.64112 5.75762 5.43251 7.13231 4.6875 8.7625C5.43986 8.69959 6.19369 8.86523 6.85036 9.23777C7.50704 9.6103 8.03597 10.1724 8.36797 10.8504C8.69997 11.5285 8.81956 12.291 8.71111 13.0382C8.60265 13.7853 8.2712 14.4823 7.76011 15.038C7.24902 15.5937 6.5821 15.9822 5.84661 16.1526C5.11112 16.3231 4.3413 16.2676 3.63789 15.9933C2.93447 15.7191 2.3302 15.2389 1.90415 14.6156C1.4781 13.9924 1.25011 13.255 1.25 12.5V12.4663C1.25136 12.3695 1.25553 12.2728 1.2625 12.1763C1.27375 11.9888 1.29625 11.7263 1.34 11.4038C1.4275 10.7625 1.59875 9.87875 1.945 8.88625C2.635 6.89875 4.0325 4.4425 6.8375 2.69C6.9767 2.603 7.13168 2.54427 7.29357 2.51716C7.45547 2.49005 7.62113 2.4951 7.78108 2.53201C7.94102 2.56892 8.09214 2.63698 8.22578 2.73229C8.35943 2.8276 8.473 2.9483 8.56 3.0875ZM17.31 3.0875C17.397 3.2267 17.4557 3.38168 17.4828 3.54358C17.5099 3.70548 17.5049 3.87113 17.468 4.03108C17.4311 4.19103 17.363 4.34214 17.2677 4.47579C17.1724 4.60944 17.0517 4.723 16.9125 4.81C15.3911 5.75762 14.1825 7.13231 13.4375 8.7625C14.1899 8.69959 14.9437 8.86523 15.6004 9.23777C16.257 9.6103 16.786 10.1724 17.118 10.8504C17.45 11.5285 17.5696 12.291 17.4611 13.0382C17.3526 13.7853 17.0212 14.4823 16.5101 15.038C15.999 15.5937 15.3321 15.9822 14.5966 16.1526C13.8611 16.3231 13.0913 16.2676 12.3879 15.9933C11.6845 15.7191 11.0802 15.2389 10.6542 14.6156C10.2281 13.9924 10.0001 13.255 10 12.5V12.4663C10.0014 12.3695 10.0055 12.2728 10.0125 12.1763C10.0238 11.9888 10.0462 11.7263 10.09 11.4038C10.1775 10.7625 10.3488 9.87875 10.695 8.88625C11.385 6.89875 12.7825 4.4425 15.5875 2.69C15.7267 2.603 15.8817 2.54427 16.0436 2.51716C16.2055 2.49005 16.3711 2.4951 16.5311 2.53201C16.691 2.56892 16.8421 2.63698 16.9758 2.73229C17.1094 2.8276 17.223 2.9483 17.31 3.0875Z" fill="#424142"/>
<path d="M8.56 3.0875C8.647 3.2267 8.70573 3.38168 8.73284 3.54358C8.75995 3.70548 8.7549 3.87113 8.71799 4.03108C8.68108 4.19103 8.61303 4.34214 8.51772 4.47579C8.4224 4.60944 8.3017 4.723 8.1625 4.81C6.64112 5.75762 5.43251 7.13231 4.6875 8.7625C5.43986 8.69959 6.19369 8.86523 6.85036 9.23777C7.50704 9.6103 8.03597 10.1724 8.36797 10.8504C8.69997 11.5285 8.81956 12.291 8.71111 13.0382C8.60265 13.7853 8.2712 14.4823 7.76011 15.038C7.24902 15.5937 6.5821 15.9822 5.84661 16.1526C5.11112 16.3231 4.3413 16.2676 3.63789 15.9933C2.93447 15.7191 2.3302 15.2389 1.90415 14.6156C1.4781 13.9924 1.25011 13.255 1.25 12.5V12.4663C1.25136 12.3695 1.25553 12.2728 1.2625 12.1763C1.27375 11.9888 1.29625 11.7263 1.34 11.4038C1.4275 10.7625 1.59875 9.87875 1.945 8.88625C2.635 6.89875 4.0325 4.4425 6.8375 2.69C6.9767 2.603 7.13168 2.54427 7.29357 2.51716C7.45547 2.49005 7.62113 2.4951 7.78108 2.53201C7.94102 2.56892 8.09214 2.63698 8.22578 2.73229C8.35943 2.8276 8.473 2.9483 8.56 3.0875ZM17.31 3.0875C17.397 3.2267 17.4557 3.38168 17.4828 3.54358C17.5099 3.70548 17.5049 3.87113 17.468 4.03108C17.4311 4.19103 17.363 4.34214 17.2677 4.47579C17.1724 4.60944 17.0517 4.723 16.9125 4.81C15.3911 5.75762 14.1825 7.13231 13.4375 8.7625C14.1899 8.69959 14.9437 8.86523 15.6004 9.23777C16.257 9.6103 16.786 10.1724 17.118 10.8504C17.45 11.5285 17.5696 12.291 17.4611 13.0382C17.3526 13.7853 17.0212 14.4823 16.5101 15.038C15.999 15.5937 15.3321 15.9822 14.5966 16.1526C13.8611 16.3231 13.0913 16.2676 12.3879 15.9933C11.6845 15.7191 11.0802 15.2389 10.6542 14.6156C10.2281 13.9924 10.0001 13.255 10 12.5V12.4663C10.0014 12.3695 10.0055 12.2728 10.0125 12.1763C10.0238 11.9888 10.0462 11.7263 10.09 11.4038C10.1775 10.7625 10.3488 9.87875 10.695 8.88625C11.385 6.89875 12.7825 4.4425 15.5875 2.69C15.7267 2.603 15.8817 2.54427 16.0436 2.51716C16.2055 2.49005 16.3711 2.4951 16.5311 2.53201C16.691 2.56892 16.8421 2.63698 16.9758 2.73229C17.1094 2.8276 17.223 2.9483 17.31 3.0875Z" fill="black" fill-opacity="0.2"/>
<path d="M8.56 3.0875C8.647 3.2267 8.70573 3.38168 8.73284 3.54358C8.75995 3.70548 8.7549 3.87113 8.71799 4.03108C8.68108 4.19103 8.61303 4.34214 8.51772 4.47579C8.4224 4.60944 8.3017 4.723 8.1625 4.81C6.64112 5.75762 5.43251 7.13231 4.6875 8.7625C5.43986 8.69959 6.19369 8.86523 6.85036 9.23777C7.50704 9.6103 8.03597 10.1724 8.36797 10.8504C8.69997 11.5285 8.81956 12.291 8.71111 13.0382C8.60265 13.7853 8.2712 14.4823 7.76011 15.038C7.24902 15.5937 6.5821 15.9822 5.84661 16.1526C5.11112 16.3231 4.3413 16.2676 3.63789 15.9933C2.93447 15.7191 2.3302 15.2389 1.90415 14.6156C1.4781 13.9924 1.25011 13.255 1.25 12.5V12.4663C1.25136 12.3695 1.25553 12.2728 1.2625 12.1763C1.27375 11.9888 1.29625 11.7263 1.34 11.4038C1.4275 10.7625 1.59875 9.87875 1.945 8.88625C2.635 6.89875 4.0325 4.4425 6.8375 2.69C6.9767 2.603 7.13168 2.54427 7.29357 2.51716C7.45547 2.49005 7.62113 2.4951 7.78108 2.53201C7.94102 2.56892 8.09214 2.63698 8.22578 2.73229C8.35943 2.8276 8.473 2.9483 8.56 3.0875ZM17.31 3.0875C17.397 3.2267 17.4557 3.38168 17.4828 3.54358C17.5099 3.70548 17.5049 3.87113 17.468 4.03108C17.4311 4.19103 17.363 4.34214 17.2677 4.47579C17.1724 4.60944 17.0517 4.723 16.9125 4.81C15.3911 5.75762 14.1825 7.13231 13.4375 8.7625C14.1899 8.69959 14.9437 8.86523 15.6004 9.23777C16.257 9.6103 16.786 10.1724 17.118 10.8504C17.45 11.5285 17.5696 12.291 17.4611 13.0382C17.3526 13.7853 17.0212 14.4823 16.5101 15.038C15.999 15.5937 15.3321 15.9822 14.5966 16.1526C13.8611 16.3231 13.0913 16.2676 12.3879 15.9933C11.6845 15.7191 11.0802 15.2389 10.6542 14.6156C10.2281 13.9924 10.0001 13.255 10 12.5V12.4663C10.0014 12.3695 10.0055 12.2728 10.0125 12.1763C10.0238 11.9888 10.0462 11.7263 10.09 11.4038C10.1775 10.7625 10.3488 9.87875 10.695 8.88625C11.385 6.89875 12.7825 4.4425 15.5875 2.69C15.7267 2.603 15.8817 2.54427 16.0436 2.51716C16.2055 2.49005 16.3711 2.4951 16.5311 2.53201C16.691 2.56892 16.8421 2.63698 16.9758 2.73229C17.1094 2.8276 17.223 2.9483 17.31 3.0875Z" fill="black" fill-opacity="0.2"/>
<path d="M8.56 3.0875C8.647 3.2267 8.70573 3.38168 8.73284 3.54358C8.75995 3.70548 8.7549 3.87113 8.71799 4.03108C8.68108 4.19103 8.61303 4.34214 8.51772 4.47579C8.4224 4.60944 8.3017 4.723 8.1625 4.81C6.64112 5.75762 5.43251 7.13231 4.6875 8.7625C5.43986 8.69959 6.19369 8.86523 6.85036 9.23777C7.50704 9.6103 8.03597 10.1724 8.36797 10.8504C8.69997 11.5285 8.81956 12.291 8.71111 13.0382C8.60265 13.7853 8.2712 14.4823 7.76011 15.038C7.24902 15.5937 6.5821 15.9822 5.84661 16.1526C5.11112 16.3231 4.3413 16.2676 3.63789 15.9933C2.93447 15.7191 2.3302 15.2389 1.90415 14.6156C1.4781 13.9924 1.25011 13.255 1.25 12.5V12.4663C1.25136 12.3695 1.25553 12.2728 1.2625 12.1763C1.27375 11.9888 1.29625 11.7263 1.34 11.4038C1.4275 10.7625 1.59875 9.87875 1.945 8.88625C2.635 6.89875 4.0325 4.4425 6.8375 2.69C6.9767 2.603 7.13168 2.54427 7.29357 2.51716C7.45547 2.49005 7.62113 2.4951 7.78108 2.53201C7.94102 2.56892 8.09214 2.63698 8.22578 2.73229C8.35943 2.8276 8.473 2.9483 8.56 3.0875ZM17.31 3.0875C17.397 3.2267 17.4557 3.38168 17.4828 3.54358C17.5099 3.70548 17.5049 3.87113 17.468 4.03108C17.4311 4.19103 17.363 4.34214 17.2677 4.47579C17.1724 4.60944 17.0517 4.723 16.9125 4.81C15.3911 5.75762 14.1825 7.13231 13.4375 8.7625C14.1899 8.69959 14.9437 8.86523 15.6004 9.23777C16.257 9.6103 16.786 10.1724 17.118 10.8504C17.45 11.5285 17.5696 12.291 17.4611 13.0382C17.3526 13.7853 17.0212 14.4823 16.5101 15.038C15.999 15.5937 15.3321 15.9822 14.5966 16.1526C13.8611 16.3231 13.0913 16.2676 12.3879 15.9933C11.6845 15.7191 11.0802 15.2389 10.6542 14.6156C10.2281 13.9924 10.0001 13.255 10 12.5V12.4663C10.0014 12.3695 10.0055 12.2728 10.0125 12.1763C10.0238 11.9888 10.0462 11.7263 10.09 11.4038C10.1775 10.7625 10.3488 9.87875 10.695 8.88625C11.385 6.89875 12.7825 4.4425 15.5875 2.69C15.7267 2.603 15.8817 2.54427 16.0436 2.51716C16.2055 2.49005 16.3711 2.4951 16.5311 2.53201C16.691 2.56892 16.8421 2.63698 16.9758 2.73229C17.1094 2.8276 17.223 2.9483 17.31 3.0875Z" fill="black" fill-opacity="0.2"/>
<path d="M8.56 3.0875C8.647 3.2267 8.70573 3.38168 8.73284 3.54358C8.75995 3.70548 8.7549 3.87113 8.71799 4.03108C8.68108 4.19103 8.61303 4.34214 8.51772 4.47579C8.4224 4.60944 8.3017 4.723 8.1625 4.81C6.64112 5.75762 5.43251 7.13231 4.6875 8.7625C5.43986 8.69959 6.19369 8.86523 6.85036 9.23777C7.50704 9.6103 8.03597 10.1724 8.36797 10.8504C8.69997 11.5285 8.81956 12.291 8.71111 13.0382C8.60265 13.7853 8.2712 14.4823 7.76011 15.038C7.24902 15.5937 6.5821 15.9822 5.84661 16.1526C5.11112 16.3231 4.3413 16.2676 3.63789 15.9933C2.93447 15.7191 2.3302 15.2389 1.90415 14.6156C1.4781 13.9924 1.25011 13.255 1.25 12.5V12.4663C1.25136 12.3695 1.25553 12.2728 1.2625 12.1763C1.27375 11.9888 1.29625 11.7263 1.34 11.4038C1.4275 10.7625 1.59875 9.87875 1.945 8.88625C2.635 6.89875 4.0325 4.4425 6.8375 2.69C6.9767 2.603 7.13168 2.54427 7.29357 2.51716C7.45547 2.49005 7.62113 2.4951 7.78108 2.53201C7.94102 2.56892 8.09214 2.63698 8.22578 2.73229C8.35943 2.8276 8.473 2.9483 8.56 3.0875ZM17.31 3.0875C17.397 3.2267 17.4557 3.38168 17.4828 3.54358C17.5099 3.70548 17.5049 3.87113 17.468 4.03108C17.4311 4.19103 17.363 4.34214 17.2677 4.47579C17.1724 4.60944 17.0517 4.723 16.9125 4.81C15.3911 5.75762 14.1825 7.13231 13.4375 8.7625C14.1899 8.69959 14.9437 8.86523 15.6004 9.23777C16.257 9.6103 16.786 10.1724 17.118 10.8504C17.45 11.5285 17.5696 12.291 17.4611 13.0382C17.3526 13.7853 17.0212 14.4823 16.5101 15.038C15.999 15.5937 15.3321 15.9822 14.5966 16.1526C13.8611 16.3231 13.0913 16.2676 12.3879 15.9933C11.6845 15.7191 11.0802 15.2389 10.6542 14.6156C10.2281 13.9924 10.0001 13.255 10 12.5V12.4663C10.0014 12.3695 10.0055 12.2728 10.0125 12.1763C10.0238 11.9888 10.0462 11.7263 10.09 11.4038C10.1775 10.7625 10.3488 9.87875 10.695 8.88625C11.385 6.89875 12.7825 4.4425 15.5875 2.69C15.7267 2.603 15.8817 2.54427 16.0436 2.51716C16.2055 2.49005 16.3711 2.4951 16.5311 2.53201C16.691 2.56892 16.8421 2.63698 16.9758 2.73229C17.1094 2.8276 17.223 2.9483 17.31 3.0875Z" fill="black" fill-opacity="0.2"/>
<path d="M8.56 3.0875C8.647 3.2267 8.70573 3.38168 8.73284 3.54358C8.75995 3.70548 8.7549 3.87113 8.71799 4.03108C8.68108 4.19103 8.61303 4.34214 8.51772 4.47579C8.4224 4.60944 8.3017 4.723 8.1625 4.81C6.64112 5.75762 5.43251 7.13231 4.6875 8.7625C5.43986 8.69959 6.19369 8.86523 6.85036 9.23777C7.50704 9.6103 8.03597 10.1724 8.36797 10.8504C8.69997 11.5285 8.81956 12.291 8.71111 13.0382C8.60265 13.7853 8.2712 14.4823 7.76011 15.038C7.24902 15.5937 6.5821 15.9822 5.84661 16.1526C5.11112 16.3231 4.3413 16.2676 3.63789 15.9933C2.93447 15.7191 2.3302 15.2389 1.90415 14.6156C1.4781 13.9924 1.25011 13.255 1.25 12.5V12.4663C1.25136 12.3695 1.25553 12.2728 1.2625 12.1763C1.27375 11.9888 1.29625 11.7263 1.34 11.4038C1.4275 10.7625 1.59875 9.87875 1.945 8.88625C2.635 6.89875 4.0325 4.4425 6.8375 2.69C6.9767 2.603 7.13168 2.54427 7.29357 2.51716C7.45547 2.49005 7.62113 2.4951 7.78108 2.53201C7.94102 2.56892 8.09214 2.63698 8.22578 2.73229C8.35943 2.8276 8.473 2.9483 8.56 3.0875ZM17.31 3.0875C17.397 3.2267 17.4557 3.38168 17.4828 3.54358C17.5099 3.70548 17.5049 3.87113 17.468 4.03108C17.4311 4.19103 17.363 4.34214 17.2677 4.47579C17.1724 4.60944 17.0517 4.723 16.9125 4.81C15.3911 5.75762 14.1825 7.13231 13.4375 8.7625C14.1899 8.69959 14.9437 8.86523 15.6004 9.23777C16.257 9.6103 16.786 10.1724 17.118 10.8504C17.45 11.5285 17.5696 12.291 17.4611 13.0382C17.3526 13.7853 17.0212 14.4823 16.5101 15.038C15.999 15.5937 15.3321 15.9822 14.5966 16.1526C13.8611 16.3231 13.0913 16.2676 12.3879 15.9933C11.6845 15.7191 11.0802 15.2389 10.6542 14.6156C10.2281 13.9924 10.0001 13.255 10 12.5V12.4663C10.0014 12.3695 10.0055 12.2728 10.0125 12.1763C10.0238 11.9888 10.0462 11.7263 10.09 11.4038C10.1775 10.7625 10.3488 9.87875 10.695 8.88625C11.385 6.89875 12.7825 4.4425 15.5875 2.69C15.7267 2.603 15.8817 2.54427 16.0436 2.51716C16.2055 2.49005 16.3711 2.4951 16.5311 2.53201C16.691 2.56892 16.8421 2.63698 16.9758 2.73229C17.1094 2.8276 17.223 2.9483 17.31 3.0875Z" fill="black" fill-opacity="0.2"/>
<path d="M8.56 3.0875C8.647 3.2267 8.70573 3.38168 8.73284 3.54358C8.75995 3.70548 8.7549 3.87113 8.71799 4.03108C8.68108 4.19103 8.61303 4.34214 8.51772 4.47579C8.4224 4.60944 8.3017 4.723 8.1625 4.81C6.64112 5.75762 5.43251 7.13231 4.6875 8.7625C5.43986 8.69959 6.19369 8.86523 6.85036 9.23777C7.50704 9.6103 8.03597 10.1724 8.36797 10.8504C8.69997 11.5285 8.81956 12.291 8.71111 13.0382C8.60265 13.7853 8.2712 14.4823 7.76011 15.038C7.24902 15.5937 6.5821 15.9822 5.84661 16.1526C5.11112 16.3231 4.3413 16.2676 3.63789 15.9933C2.93447 15.7191 2.3302 15.2389 1.90415 14.6156C1.4781 13.9924 1.25011 13.255 1.25 12.5V12.4663C1.25136 12.3695 1.25553 12.2728 1.2625 12.1763C1.27375 11.9888 1.29625 11.7263 1.34 11.4038C1.4275 10.7625 1.59875 9.87875 1.945 8.88625C2.635 6.89875 4.0325 4.4425 6.8375 2.69C6.9767 2.603 7.13168 2.54427 7.29357 2.51716C7.45547 2.49005 7.62113 2.4951 7.78108 2.53201C7.94102 2.56892 8.09214 2.63698 8.22578 2.73229C8.35943 2.8276 8.473 2.9483 8.56 3.0875ZM17.31 3.0875C17.397 3.2267 17.4557 3.38168 17.4828 3.54358C17.5099 3.70548 17.5049 3.87113 17.468 4.03108C17.4311 4.19103 17.363 4.34214 17.2677 4.47579C17.1724 4.60944 17.0517 4.723 16.9125 4.81C15.3911 5.75762 14.1825 7.13231 13.4375 8.7625C14.1899 8.69959 14.9437 8.86523 15.6004 9.23777C16.257 9.6103 16.786 10.1724 17.118 10.8504C17.45 11.5285 17.5696 12.291 17.4611 13.0382C17.3526 13.7853 17.0212 14.4823 16.5101 15.038C15.999 15.5937 15.3321 15.9822 14.5966 16.1526C13.8611 16.3231 13.0913 16.2676 12.3879 15.9933C11.6845 15.7191 11.0802 15.2389 10.6542 14.6156C10.2281 13.9924 10.0001 13.255 10 12.5V12.4663C10.0014 12.3695 10.0055 12.2728 10.0125 12.1763C10.0238 11.9888 10.0462 11.7263 10.09 11.4038C10.1775 10.7625 10.3488 9.87875 10.695 8.88625C11.385 6.89875 12.7825 4.4425 15.5875 2.69C15.7267 2.603 15.8817 2.54427 16.0436 2.51716C16.2055 2.49005 16.3711 2.4951 16.5311 2.53201C16.691 2.56892 16.8421 2.63698 16.9758 2.73229C17.1094 2.8276 17.223 2.9483 17.31 3.0875Z" fill="black" fill-opacity="0.2"/>
<path d="M8.56 3.0875C8.647 3.2267 8.70573 3.38168 8.73284 3.54358C8.75995 3.70548 8.7549 3.87113 8.71799 4.03108C8.68108 4.19103 8.61303 4.34214 8.51772 4.47579C8.4224 4.60944 8.3017 4.723 8.1625 4.81C6.64112 5.75762 5.43251 7.13231 4.6875 8.7625C5.43986 8.69959 6.19369 8.86523 6.85036 9.23777C7.50704 9.6103 8.03597 10.1724 8.36797 10.8504C8.69997 11.5285 8.81956 12.291 8.71111 13.0382C8.60265 13.7853 8.2712 14.4823 7.76011 15.038C7.24902 15.5937 6.5821 15.9822 5.84661 16.1526C5.11112 16.3231 4.3413 16.2676 3.63789 15.9933C2.93447 15.7191 2.3302 15.2389 1.90415 14.6156C1.4781 13.9924 1.25011 13.255 1.25 12.5V12.4663C1.25136 12.3695 1.25553 12.2728 1.2625 12.1763C1.27375 11.9888 1.29625 11.7263 1.34 11.4038C1.4275 10.7625 1.59875 9.87875 1.945 8.88625C2.635 6.89875 4.0325 4.4425 6.8375 2.69C6.9767 2.603 7.13168 2.54427 7.29357 2.51716C7.45547 2.49005 7.62113 2.4951 7.78108 2.53201C7.94102 2.56892 8.09214 2.63698 8.22578 2.73229C8.35943 2.8276 8.473 2.9483 8.56 3.0875ZM17.31 3.0875C17.397 3.2267 17.4557 3.38168 17.4828 3.54358C17.5099 3.70548 17.5049 3.87113 17.468 4.03108C17.4311 4.19103 17.363 4.34214 17.2677 4.47579C17.1724 4.60944 17.0517 4.723 16.9125 4.81C15.3911 5.75762 14.1825 7.13231 13.4375 8.7625C14.1899 8.69959 14.9437 8.86523 15.6004 9.23777C16.257 9.6103 16.786 10.1724 17.118 10.8504C17.45 11.5285 17.5696 12.291 17.4611 13.0382C17.3526 13.7853 17.0212 14.4823 16.5101 15.038C15.999 15.5937 15.3321 15.9822 14.5966 16.1526C13.8611 16.3231 13.0913 16.2676 12.3879 15.9933C11.6845 15.7191 11.0802 15.2389 10.6542 14.6156C10.2281 13.9924 10.0001 13.255 10 12.5V12.4663C10.0014 12.3695 10.0055 12.2728 10.0125 12.1763C10.0238 11.9888 10.0462 11.7263 10.09 11.4038C10.1775 10.7625 10.3488 9.87875 10.695 8.88625C11.385 6.89875 12.7825 4.4425 15.5875 2.69C15.7267 2.603 15.8817 2.54427 16.0436 2.51716C16.2055 2.49005 16.3711 2.4951 16.5311 2.53201C16.691 2.56892 16.8421 2.63698 16.9758 2.73229C17.1094 2.8276 17.223 2.9483 17.31 3.0875Z" fill="black" fill-opacity="0.2"/>
<path d="M8.56 3.0875C8.647 3.2267 8.70573 3.38168 8.73284 3.54358C8.75995 3.70548 8.7549 3.87113 8.71799 4.03108C8.68108 4.19103 8.61303 4.34214 8.51772 4.47579C8.4224 4.60944 8.3017 4.723 8.1625 4.81C6.64112 5.75762 5.43251 7.13231 4.6875 8.7625C5.43986 8.69959 6.19369 8.86523 6.85036 9.23777C7.50704 9.6103 8.03597 10.1724 8.36797 10.8504C8.69997 11.5285 8.81956 12.291 8.71111 13.0382C8.60265 13.7853 8.2712 14.4823 7.76011 15.038C7.24902 15.5937 6.5821 15.9822 5.84661 16.1526C5.11112 16.3231 4.3413 16.2676 3.63789 15.9933C2.93447 15.7191 2.3302 15.2389 1.90415 14.6156C1.4781 13.9924 1.25011 13.255 1.25 12.5V12.4663C1.25136 12.3695 1.25553 12.2728 1.2625 12.1763C1.27375 11.9888 1.29625 11.7263 1.34 11.4038C1.4275 10.7625 1.59875 9.87875 1.945 8.88625C2.635 6.89875 4.0325 4.4425 6.8375 2.69C6.9767 2.603 7.13168 2.54427 7.29357 2.51716C7.45547 2.49005 7.62113 2.4951 7.78108 2.53201C7.94102 2.56892 8.09214 2.63698 8.22578 2.73229C8.35943 2.8276 8.473 2.9483 8.56 3.0875ZM17.31 3.0875C17.397 3.2267 17.4557 3.38168 17.4828 3.54358C17.5099 3.70548 17.5049 3.87113 17.468 4.03108C17.4311 4.19103 17.363 4.34214 17.2677 4.47579C17.1724 4.60944 17.0517 4.723 16.9125 4.81C15.3911 5.75762 14.1825 7.13231 13.4375 8.7625C14.1899 8.69959 14.9437 8.86523 15.6004 9.23777C16.257 9.6103 16.786 10.1724 17.118 10.8504C17.45 11.5285 17.5696 12.291 17.4611 13.0382C17.3526 13.7853 17.0212 14.4823 16.5101 15.038C15.999 15.5937 15.3321 15.9822 14.5966 16.1526C13.8611 16.3231 13.0913 16.2676 12.3879 15.9933C11.6845 15.7191 11.0802 15.2389 10.6542 14.6156C10.2281 13.9924 10.0001 13.255 10 12.5V12.4663C10.0014 12.3695 10.0055 12.2728 10.0125 12.1763C10.0238 11.9888 10.0462 11.7263 10.09 11.4038C10.1775 10.7625 10.3488 9.87875 10.695 8.88625C11.385 6.89875 12.7825 4.4425 15.5875 2.69C15.7267 2.603 15.8817 2.54427 16.0436 2.51716C16.2055 2.49005 16.3711 2.4951 16.5311 2.53201C16.691 2.56892 16.8421 2.63698 16.9758 2.73229C17.1094 2.8276 17.223 2.9483 17.31 3.0875Z" fill="black" fill-opacity="0.2"/>
<path d="M8.56 3.0875C8.647 3.2267 8.70573 3.38168 8.73284 3.54358C8.75995 3.70548 8.7549 3.87113 8.71799 4.03108C8.68108 4.19103 8.61303 4.34214 8.51772 4.47579C8.4224 4.60944 8.3017 4.723 8.1625 4.81C6.64112 5.75762 5.43251 7.13231 4.6875 8.7625C5.43986 8.69959 6.19369 8.86523 6.85036 9.23777C7.50704 9.6103 8.03597 10.1724 8.36797 10.8504C8.69997 11.5285 8.81956 12.291 8.71111 13.0382C8.60265 13.7853 8.2712 14.4823 7.76011 15.038C7.24902 15.5937 6.5821 15.9822 5.84661 16.1526C5.11112 16.3231 4.3413 16.2676 3.63789 15.9933C2.93447 15.7191 2.3302 15.2389 1.90415 14.6156C1.4781 13.9924 1.25011 13.255 1.25 12.5V12.4663C1.25136 12.3695 1.25553 12.2728 1.2625 12.1763C1.27375 11.9888 1.29625 11.7263 1.34 11.4038C1.4275 10.7625 1.59875 9.87875 1.945 8.88625C2.635 6.89875 4.0325 4.4425 6.8375 2.69C6.9767 2.603 7.13168 2.54427 7.29357 2.51716C7.45547 2.49005 7.62113 2.4951 7.78108 2.53201C7.94102 2.56892 8.09214 2.63698 8.22578 2.73229C8.35943 2.8276 8.473 2.9483 8.56 3.0875ZM17.31 3.0875C17.397 3.2267 17.4557 3.38168 17.4828 3.54358C17.5099 3.70548 17.5049 3.87113 17.468 4.03108C17.4311 4.19103 17.363 4.34214 17.2677 4.47579C17.1724 4.60944 17.0517 4.723 16.9125 4.81C15.3911 5.75762 14.1825 7.13231 13.4375 8.7625C14.1899 8.69959 14.9437 8.86523 15.6004 9.23777C16.257 9.6103 16.786 10.1724 17.118 10.8504C17.45 11.5285 17.5696 12.291 17.4611 13.0382C17.3526 13.7853 17.0212 14.4823 16.5101 15.038C15.999 15.5937 15.3321 15.9822 14.5966 16.1526C13.8611 16.3231 13.0913 16.2676 12.3879 15.9933C11.6845 15.7191 11.0802 15.2389 10.6542 14.6156C10.2281 13.9924 10.0001 13.255 10 12.5V12.4663C10.0014 12.3695 10.0055 12.2728 10.0125 12.1763C10.0238 11.9888 10.0462 11.7263 10.09 11.4038C10.1775 10.7625 10.3488 9.87875 10.695 8.88625C11.385 6.89875 12.7825 4.4425 15.5875 2.69C15.7267 2.603 15.8817 2.54427 16.0436 2.51716C16.2055 2.49005 16.3711 2.4951 16.5311 2.53201C16.691 2.56892 16.8421 2.63698 16.9758 2.73229C17.1094 2.8276 17.223 2.9483 17.31 3.0875Z" fill="black" fill-opacity="0.2"/>
<path d="M8.56 3.0875C8.647 3.2267 8.70573 3.38168 8.73284 3.54358C8.75995 3.70548 8.7549 3.87113 8.71799 4.03108C8.68108 4.19103 8.61303 4.34214 8.51772 4.47579C8.4224 4.60944 8.3017 4.723 8.1625 4.81C6.64112 5.75762 5.43251 7.13231 4.6875 8.7625C5.43986 8.69959 6.19369 8.86523 6.85036 9.23777C7.50704 9.6103 8.03597 10.1724 8.36797 10.8504C8.69997 11.5285 8.81956 12.291 8.71111 13.0382C8.60265 13.7853 8.2712 14.4823 7.76011 15.038C7.24902 15.5937 6.5821 15.9822 5.84661 16.1526C5.11112 16.3231 4.3413 16.2676 3.63789 15.9933C2.93447 15.7191 2.3302 15.2389 1.90415 14.6156C1.4781 13.9924 1.25011 13.255 1.25 12.5V12.4663C1.25136 12.3695 1.25553 12.2728 1.2625 12.1763C1.27375 11.9888 1.29625 11.7263 1.34 11.4038C1.4275 10.7625 1.59875 9.87875 1.945 8.88625C2.635 6.89875 4.0325 4.4425 6.8375 2.69C6.9767 2.603 7.13168 2.54427 7.29357 2.51716C7.45547 2.49005 7.62113 2.4951 7.78108 2.53201C7.94102 2.56892 8.09214 2.63698 8.22578 2.73229C8.35943 2.8276 8.473 2.9483 8.56 3.0875ZM17.31 3.0875C17.397 3.2267 17.4557 3.38168 17.4828 3.54358C17.5099 3.70548 17.5049 3.87113 17.468 4.03108C17.4311 4.19103 17.363 4.34214 17.2677 4.47579C17.1724 4.60944 17.0517 4.723 16.9125 4.81C15.3911 5.75762 14.1825 7.13231 13.4375 8.7625C14.1899 8.69959 14.9437 8.86523 15.6004 9.23777C16.257 9.6103 16.786 10.1724 17.118 10.8504C17.45 11.5285 17.5696 12.291 17.4611 13.0382C17.3526 13.7853 17.0212 14.4823 16.5101 15.038C15.999 15.5937 15.3321 15.9822 14.5966 16.1526C13.8611 16.3231 13.0913 16.2676 12.3879 15.9933C11.6845 15.7191 11.0802 15.2389 10.6542 14.6156C10.2281 13.9924 10.0001 13.255 10 12.5V12.4663C10.0014 12.3695 10.0055 12.2728 10.0125 12.1763C10.0238 11.9888 10.0462 11.7263 10.09 11.4038C10.1775 10.7625 10.3488 9.87875 10.695 8.88625C11.385 6.89875 12.7825 4.4425 15.5875 2.69C15.7267 2.603 15.8817 2.54427 16.0436 2.51716C16.2055 2.49005 16.3711 2.4951 16.5311 2.53201C16.691 2.56892 16.8421 2.63698 16.9758 2.73229C17.1094 2.8276 17.223 2.9483 17.31 3.0875Z" fill="black" fill-opacity="0.2"/>
</svg>
