<svg width="136" height="25" viewBox="0 0 136 25" fill="none" xmlns="http://www.w3.org/2000/svg">
<path d="M10.1533 4.93945C10.8366 3.29731 13.1634 3.29731 13.8467 4.93945L14.7051 7.00293C14.9931 7.69535 15.6441 8.16853 16.3916 8.22852L18.6191 8.40723C20.3924 8.54939 21.1118 10.7626 19.7607 11.9199L18.0635 13.374C17.4939 13.8619 17.2449 14.6279 17.4189 15.3574L17.9375 17.5312C18.3499 19.2614 16.4682 20.6288 14.9502 19.7021L13.043 18.5371C12.4029 18.1462 11.5971 18.1462 10.957 18.5371L9.0498 19.7021C7.53179 20.6288 5.65009 19.2614 6.0625 17.5312L6.58105 15.3574C6.75507 14.6279 6.50609 13.8619 5.93652 13.374L4.23926 11.9199C2.88825 10.7626 3.60757 8.54939 5.38086 8.40723L7.6084 8.22852C8.35591 8.16853 9.00693 7.69535 9.29492 7.00293L10.1533 4.93945Z" fill="#F1C644"/>
<path d="M10.1533 4.93945C10.8366 3.29731 13.1634 3.29731 13.8467 4.93945L14.7051 7.00293C14.9931 7.69535 15.6441 8.16853 16.3916 8.22852L18.6191 8.40723C20.3924 8.54939 21.1118 10.7626 19.7607 11.9199L18.0635 13.374C17.4939 13.8619 17.2449 14.6279 17.4189 15.3574L17.9375 17.5312C18.3499 19.2614 16.4682 20.6288 14.9502 19.7021L13.043 18.5371C12.4029 18.1462 11.5971 18.1462 10.957 18.5371L9.0498 19.7021C7.53179 20.6288 5.65009 19.2614 6.0625 17.5312L6.58105 15.3574C6.75507 14.6279 6.50609 13.8619 5.93652 13.374L4.23926 11.9199C2.88825 10.7626 3.60757 8.54939 5.38086 8.40723L7.6084 8.22852C8.35591 8.16853 9.00693 7.69535 9.29492 7.00293L10.1533 4.93945Z" stroke="#F1C644"/>
<path d="M38.1533 4.93945C38.8366 3.29731 41.1634 3.29731 41.8467 4.93945L42.7051 7.00293C42.9931 7.69535 43.6441 8.16853 44.3916 8.22852L46.6191 8.40723C48.3924 8.54939 49.1118 10.7626 47.7607 11.9199L46.0635 13.374C45.4939 13.8619 45.2449 14.6279 45.4189 15.3574L45.9375 17.5312C46.3499 19.2614 44.4682 20.6288 42.9502 19.7021L41.043 18.5371C40.4029 18.1462 39.5971 18.1462 38.957 18.5371L37.0498 19.7021C35.5318 20.6288 33.6501 19.2614 34.0625 17.5312L34.5811 15.3574C34.7551 14.6279 34.5061 13.8619 33.9365 13.374L32.2393 11.9199C30.8882 10.7626 31.6076 8.54939 33.3809 8.40723L35.6084 8.22852C36.3559 8.16853 37.0069 7.69535 37.2949 7.00293L38.1533 4.93945Z" fill="#F1C644"/>
<path d="M38.1533 4.93945C38.8366 3.29731 41.1634 3.29731 41.8467 4.93945L42.7051 7.00293C42.9931 7.69535 43.6441 8.16853 44.3916 8.22852L46.6191 8.40723C48.3924 8.54939 49.1118 10.7626 47.7607 11.9199L46.0635 13.374C45.4939 13.8619 45.2449 14.6279 45.4189 15.3574L45.9375 17.5312C46.3499 19.2614 44.4682 20.6288 42.9502 19.7021L41.043 18.5371C40.4029 18.1462 39.5971 18.1462 38.957 18.5371L37.0498 19.7021C35.5318 20.6288 33.6501 19.2614 34.0625 17.5312L34.5811 15.3574C34.7551 14.6279 34.5061 13.8619 33.9365 13.374L32.2393 11.9199C30.8882 10.7626 31.6076 8.54939 33.3809 8.40723L35.6084 8.22852C36.3559 8.16853 37.0069 7.69535 37.2949 7.00293L38.1533 4.93945Z" stroke="#F1C644"/>
<path d="M66.1533 4.93945C66.8366 3.29731 69.1634 3.29731 69.8467 4.93945L70.7051 7.00293C70.9931 7.69535 71.6441 8.16853 72.3916 8.22852L74.6191 8.40723C76.3924 8.54939 77.1118 10.7626 75.7607 11.9199L74.0635 13.374C73.4939 13.8619 73.2449 14.6279 73.4189 15.3574L73.9375 17.5312C74.3499 19.2614 72.4682 20.6288 70.9502 19.7021L69.043 18.5371C68.4029 18.1462 67.5971 18.1462 66.957 18.5371L65.0498 19.7021C63.5318 20.6288 61.6501 19.2614 62.0625 17.5312L62.5811 15.3574C62.7551 14.6279 62.5061 13.8619 61.9365 13.374L60.2393 11.9199C58.8882 10.7626 59.6076 8.54939 61.3809 8.40723L63.6084 8.22852C64.3559 8.16853 65.0069 7.69535 65.2949 7.00293L66.1533 4.93945Z" fill="#F1C644"/>
<path d="M66.1533 4.93945C66.8366 3.29731 69.1634 3.29731 69.8467 4.93945L70.7051 7.00293C70.9931 7.69535 71.6441 8.16853 72.3916 8.22852L74.6191 8.40723C76.3924 8.54939 77.1118 10.7626 75.7607 11.9199L74.0635 13.374C73.4939 13.8619 73.2449 14.6279 73.4189 15.3574L73.9375 17.5312C74.3499 19.2614 72.4682 20.6288 70.9502 19.7021L69.043 18.5371C68.4029 18.1462 67.5971 18.1462 66.957 18.5371L65.0498 19.7021C63.5318 20.6288 61.6501 19.2614 62.0625 17.5312L62.5811 15.3574C62.7551 14.6279 62.5061 13.8619 61.9365 13.374L60.2393 11.9199C58.8882 10.7626 59.6076 8.54939 61.3809 8.40723L63.6084 8.22852C64.3559 8.16853 65.0069 7.69535 65.2949 7.00293L66.1533 4.93945Z" stroke="#F1C644"/>
<path d="M94.1533 4.93945C94.8366 3.29731 97.1634 3.29731 97.8467 4.93945L98.7051 7.00293C98.9931 7.69535 99.6441 8.16853 100.392 8.22852L102.619 8.40723C104.392 8.54939 105.112 10.7626 103.761 11.9199L102.063 13.374C101.494 13.8619 101.245 14.6279 101.419 15.3574L101.938 17.5312C102.35 19.2614 100.468 20.6288 98.9502 19.7021L97.043 18.5371C96.4029 18.1462 95.5971 18.1462 94.957 18.5371L93.0498 19.7021C91.5318 20.6288 89.6501 19.2614 90.0625 17.5312L90.5811 15.3574C90.7551 14.6279 90.5061 13.8619 89.9365 13.374L88.2393 11.9199C86.8882 10.7626 87.6076 8.54939 89.3809 8.40723L91.6084 8.22852C92.3559 8.16853 93.0069 7.69535 93.2949 7.00293L94.1533 4.93945Z" fill="#F1C644"/>
<path d="M94.1533 4.93945C94.8366 3.29731 97.1634 3.29731 97.8467 4.93945L98.7051 7.00293C98.9931 7.69535 99.6441 8.16853 100.392 8.22852L102.619 8.40723C104.392 8.54939 105.112 10.7626 103.761 11.9199L102.063 13.374C101.494 13.8619 101.245 14.6279 101.419 15.3574L101.938 17.5312C102.35 19.2614 100.468 20.6288 98.9502 19.7021L97.043 18.5371C96.4029 18.1462 95.5971 18.1462 94.957 18.5371L93.0498 19.7021C91.5318 20.6288 89.6501 19.2614 90.0625 17.5312L90.5811 15.3574C90.7551 14.6279 90.5061 13.8619 89.9365 13.374L88.2393 11.9199C86.8882 10.7626 87.6076 8.54939 89.3809 8.40723L91.6084 8.22852C92.3559 8.16853 93.0069 7.69535 93.2949 7.00293L94.1533 4.93945Z" stroke="#F1C644"/>
<path d="M122.153 4.93945C122.837 3.29731 125.163 3.29731 125.847 4.93945L126.705 7.00293C126.993 7.69535 127.644 8.16853 128.392 8.22852L130.619 8.40723C132.392 8.54939 133.112 10.7626 131.761 11.9199L130.063 13.374C129.494 13.8619 129.245 14.6279 129.419 15.3574L129.938 17.5312C130.35 19.2614 128.468 20.6288 126.95 19.7021L125.043 18.5371C124.403 18.1462 123.597 18.1462 122.957 18.5371L121.05 19.7021C119.532 20.6288 117.65 19.2614 118.062 17.5312L118.581 15.3574C118.755 14.6279 118.506 13.8619 117.937 13.374L116.239 11.9199C114.888 10.7626 115.608 8.54939 117.381 8.40723L119.608 8.22852C120.356 8.16853 121.007 7.69535 121.295 7.00293L122.153 4.93945Z" fill="#F1C644"/>
<path d="M122.153 4.93945C122.837 3.29731 125.163 3.29731 125.847 4.93945L126.705 7.00293C126.993 7.69535 127.644 8.16853 128.392 8.22852L130.619 8.40723C132.392 8.54939 133.112 10.7626 131.761 11.9199L130.063 13.374C129.494 13.8619 129.245 14.6279 129.419 15.3574L129.938 17.5312C130.35 19.2614 128.468 20.6288 126.95 19.7021L125.043 18.5371C124.403 18.1462 123.597 18.1462 122.957 18.5371L121.05 19.7021C119.532 20.6288 117.65 19.2614 118.062 17.5312L118.581 15.3574C118.755 14.6279 118.506 13.8619 117.937 13.374L116.239 11.9199C114.888 10.7626 115.608 8.54939 117.381 8.40723L119.608 8.22852C120.356 8.16853 121.007 7.69535 121.295 7.00293L122.153 4.93945Z" stroke="#F1C644"/>
</svg>
