<svg width="33" height="32" viewBox="0 0 33 32" fill="none" xmlns="http://www.w3.org/2000/svg">
<path d="M17.0507 0.998538C16.4247 0.998538 15.8907 1.09187 15.4894 1.19654C14.838 1.36587 14.4827 1.9692 14.4694 2.57654L14.04 22.5352V22.5419C14.04 23.8572 12.9874 24.9165 11.6967 24.9165C10.406 24.9165 9.35337 23.8565 9.35337 22.5419C9.35337 21.8432 9.60404 21.3172 9.99271 20.9385C10.386 20.5545 10.9394 20.3072 11.5594 20.2119C12.0367 20.1385 12.48 19.7585 12.506 19.2139L12.6947 15.1319C12.7207 14.5685 12.2667 14.0692 11.6727 14.1105C7.21471 14.4205 3.33337 17.6132 3.33337 22.5419C3.33337 27.2085 7.07404 30.9985 11.6967 30.9985C16.3194 30.9985 20.0607 27.2092 20.0607 22.5419L19.8427 12.4052C21.932 13.7785 24.9314 14.5912 27.7027 14.7305C28.3254 14.7619 29.0367 14.4765 29.2134 13.7405C29.284 13.4479 29.3334 13.0772 29.3334 12.6139C29.3334 12.1505 29.284 11.7805 29.2134 11.4872C29.0367 10.7512 28.322 10.4939 27.7594 10.4292C25.8287 10.2039 23.9354 9.18121 22.4554 7.72654C20.9754 6.27187 19.9327 4.4092 19.6754 2.5352C19.5974 1.97054 19.2667 1.3672 18.6107 1.19654C18.1012 1.06459 17.577 0.998059 17.0507 0.998538Z" fill="white"/>
</svg>
